<?xml version="1.0" standalone="no"?>
<!DOCTYPE svg PUBLIC "-//W3C//DTD SVG 1.1//EN" "http://www.w3.org/Graphics/SVG/1.1/DTD/svg11.dtd" >
<svg xmlns="http://www.w3.org/2000/svg" xmlns:xlink="http://www.w3.org/1999/xlink" version="1.1">
<metadata>
Created by FontForge 20200427 at Tue Mar 18 00:55:05 2014
 By www
Copyright (c) 2006 by by Nick Shinn. Published by Shinn Type Foundry. All rights reserved.
</metadata>
<defs>
<font id="BeaufortW01-HeavyItalic" horiz-adv-x="534" >
  <font-face 
    font-family="BeaufortW01-HeavyItalic"
    font-weight="900"
    font-style="italic"
    font-stretch="normal"
    units-per-em="1000"
    panose-1="2 0 9 3 5 0 0 2 0 4"
    ascent="742"
    descent="-258"
    x-height="472"
    cap-height="666"
    bbox="-185 -220 1165 904"
    underline-thickness="50"
    underline-position="-183"
    unicode-range="U+0002-2122"
  />
<missing-glyph horiz-adv-x="203" 
 />
    <glyph glyph-name=".notdef" horiz-adv-x="203" 
 />
    <glyph glyph-name=".null" horiz-adv-x="0" 
 />
    <glyph glyph-name="uni000D" unicode="&#xd;" horiz-adv-x="203" 
 />
    <glyph glyph-name="uni0002" horiz-adv-x="0" 
 />
    <glyph glyph-name="uni0009" unicode="&#x9;" horiz-adv-x="203" 
 />
    <glyph glyph-name="uni000A" unicode="&#xa;" horiz-adv-x="0" 
 />
    <glyph glyph-name="space" unicode=" " horiz-adv-x="203" 
 />
    <glyph glyph-name="exclam" unicode="!" horiz-adv-x="304" 
d="M132 593q0 24 -3.5 38t-8 21.5t-8.5 10t-6 3.5h262q-3 -1 -10.5 -5.5t-18 -18.5t-22.5 -39.5t-24 -67.5l-50 -170q-13 -44 -30.5 -76.5t-34.5 -55.5q-19 -26 -39 -45q-10 14 -18 33q-7 17 -12 40.5t-5 55.5q0 21 3 48l21 170q2 18 3 32.5t1 25.5zM190 72q0 -36 -25 -60
t-61 -24q-32 0 -50.5 19t-18.5 51q0 36 25 61t61 25q32 0 50.5 -20t18.5 -52z" />
    <glyph glyph-name="quotedbl" unicode="&#x22;" horiz-adv-x="563" 
d="M482 489q-8 -38 -25.5 -71.5t-35.5 -59.5q-21 -30 -45 -56h-4q-9 18 -15 39q-6 18 -10.5 42t-4.5 52q0 13 1 26.5t4 27.5l37 177h135zM257 489q-8 -38 -25.5 -71.5t-35.5 -59.5q-21 -30 -45 -56h-4q-9 18 -15 39q-6 18 -10.5 42t-4.5 52q0 13 1 26.5t4 27.5l37 177h135z
" />
    <glyph glyph-name="numbersign" unicode="#" horiz-adv-x="583" 
d="M437 403l-31 -137h99v-65h-116l-48 -201h-75l47 201h-147l-48 -201h-74l47 201h-94v65h110l32 137h-99v66h114l45 197h76l-46 -197h147l44 197h79l-46 -197h89v-66h-105zM214 403l-32 -137h147l32 137h-147z" />
    <glyph glyph-name="dollar" unicode="$" 
d="M461 436q-5 39 -26 65.5t-48.5 41t-58.5 17.5t-57.5 -4t-43.5 -24t-17 -42q0 -22 18.5 -39.5t46.5 -35.5t61 -37t61 -43t46.5 -55t18.5 -72q0 -48 -19 -83t-50 -60t-70.5 -39.5t-80.5 -20.5l-17 -85h-108l16 83q-51 5 -90 18.5t-68 35.5l49 220q3 -52 25 -87t53 -55
t66.5 -26t66 0.5t50.5 24.5t20 46q0 20 -18 36.5t-45 33t-59 34.5t-59 42t-45 56t-18 76q0 47 18.5 82.5t48 60t66.5 39t75 20.5l17 81h108l-16 -80q38 -5 69.5 -15t54.5 -25z" />
    <glyph glyph-name="percent" unicode="%" horiz-adv-x="814" 
d="M780 224q0 -41 -13 -83t-38.5 -76t-62.5 -55.5t-85 -21.5q-34 0 -58.5 12t-41 33t-24.5 48.5t-8 57.5q0 41 13.5 83t39.5 76.5t63 56t85 21.5q34 0 58.5 -12.5t40.5 -33.5t23.5 -48.5t7.5 -57.5zM225 0h-104l495 666h102zM385 531q0 -41 -13.5 -83t-39 -76.5t-62.5 -56
t-85 -21.5q-34 0 -58.5 12.5t-40.5 33.5t-24 48.5t-8 57.5q0 41 13.5 83t39 76.5t62.5 56t85 21.5q34 0 58.5 -12.5t40.5 -33.5t24 -48.5t8 -57.5zM668 223q0 26 -9 44.5t-29 18.5q-18 0 -31 -17t-21 -40.5t-12 -48t-4 -40.5q0 -26 8.5 -44.5t28.5 -18.5q18 0 31 17
t21.5 40.5t12.5 48t4 40.5zM273 530q0 26 -9 44.5t-29 18.5q-18 0 -31 -17t-21.5 -40.5t-12.5 -48t-4 -40.5q0 -26 8.5 -44.5t28.5 -18.5q18 0 31 17t22 40.5t13 48t4 40.5z" />
    <glyph glyph-name="ampersand" unicode="&#x26;" horiz-adv-x="764" 
d="M763 380q-9 -4 -20 -12.5t-21.5 -20t-20 -24t-16.5 -23.5q-18 -29 -49.5 -71.5t-78.5 -85.5q26 -17 51 -26t49 -9q22 0 40.5 11t41.5 31q-14 -34 -31 -63.5t-38 -51t-45.5 -33.5t-54.5 -12q-63 0 -141 58q-49 -27 -104.5 -43.5t-117.5 -16.5q-56 0 -94 12.5t-61.5 34
t-34 49.5t-10.5 60q0 28 7.5 54.5t25.5 52t48.5 51t77.5 51.5q-18 35 -31.5 69.5t-13.5 68.5q0 51 22 87.5t55 60t72.5 34.5t74.5 11q36 0 69.5 -9t60 -27.5t42 -46.5t15.5 -65q0 -34 -14 -63t-37.5 -53t-54.5 -44.5t-64 -37.5q23 -32 50.5 -63.5t56.5 -59.5
q10 10 23.5 24.5t25.5 31.5t20 34.5t8 33.5q0 28 -25 41h242zM394 521q0 28 -18.5 43t-41.5 15q-11 0 -22 -4t-21 -13t-16 -22.5t-6 -32.5q0 -23 13.5 -46t22.5 -41q36 20 62.5 46t26.5 55zM338 127q-32 32 -61 67.5t-55 71.5q-27 -19 -43.5 -41.5t-16.5 -47.5
q0 -36 23.5 -54t62.5 -18q21 0 44.5 6t45.5 16z" />
    <glyph glyph-name="quotesingle" unicode="'" horiz-adv-x="261" 
d="M220 489q-8 -38 -25.5 -71.5t-35.5 -59.5q-21 -30 -46 -56h-4q-9 18 -15 39q-6 18 -10.5 42t-4.5 52q0 25 6 54l36 177h135z" />
    <glyph glyph-name="parenleft" unicode="(" horiz-adv-x="353" 
d="M438 708q-47 -23 -86.5 -65.5t-71.5 -97t-56 -117t-40.5 -126.5t-25 -125.5t-8.5 -112.5q0 -90 24 -162t74 -107q-60 16 -105.5 51.5t-77 84.5t-47.5 108t-16 122q0 96 34.5 184t94 160t138.5 125t169 78z" />
    <glyph glyph-name="parenright" unicode=")" horiz-adv-x="353" 
d="M332 343q0 -95 -35 -183.5t-94.5 -161t-139 -125.5t-168.5 -78q47 23 86.5 65.5t71.5 96.5t56 117t40.5 127t24.5 125.5t8 112.5q0 91 -23 162.5t-74 106.5q60 -17 106 -52.5t77.5 -83.5t47.5 -107t16 -122z" />
    <glyph glyph-name="asterisk" unicode="*" horiz-adv-x="418" 
d="M407 422q-36 16 -76 32t-92 18q21 -54 47 -86t55 -60l-143 -53q4 22 6.5 44t2.5 47q0 20 -2.5 43t-8.5 49q-42 -38 -64 -77t-39 -75l-90 123l38 8t39.5 11.5t42.5 18.5t46 28q-47 28 -88 36t-79 14l88 133q7 -15 15 -31.5t20 -34.5t29 -37.5t42 -40.5q5 23 7 43.5t2 39.5
q0 29 -3 53.5t-7 47.5l147 -43q-29 -31 -56 -65t-47 -89q32 4 57 11t45 15.5t36 18t30 17.5v-159z" />
    <glyph glyph-name="plus" unicode="+" horiz-adv-x="695" 
d="M390 233l-49 -233h-108l49 233h-223l23 107h223l49 230h108l-49 -230h222l-23 -107h-222z" />
    <glyph glyph-name="comma" unicode="," horiz-adv-x="261" 
d="M190 59q0 -36 -17 -77.5t-49.5 -77t-80.5 -59t-110 -23.5q-7 0 -13 0.5t-13 1.5q27 9 53.5 26t47 39.5t34 49.5t15.5 56q0 2 0.5 5t0.5 5q-5 0 -13 2q-25 5 -38.5 24.5t-13.5 45.5q0 21 8 39t21.5 31t31.5 20.5t39 7.5q18 0 35.5 -6.5t31 -21t22 -36.5t8.5 -52z" />
    <glyph glyph-name="hyphen" unicode="-" horiz-adv-x="320" 
d="M267 203h-255l23 111h256z" />
    <glyph glyph-name="period" unicode="." horiz-adv-x="261" 
d="M177 88q0 -45 -30.5 -74t-74.5 -29q-38 0 -61 24t-23 62q0 45 30 74.5t75 29.5q39 0 61.5 -24.5t22.5 -62.5z" />
    <glyph glyph-name="slash" unicode="/" horiz-adv-x="465" 
d="M74 -15h-137l460 699h132z" />
    <glyph glyph-name="zero" unicode="0" 
d="M534 435q0 -41 -9 -90t-27 -99t-45 -97t-63 -83.5t-81.5 -58.5t-99.5 -22q-51 0 -87 20.5t-59 54.5t-34 78.5t-11 92.5q0 40 9 89.5t27 99t45 96.5t63 83.5t81 58.5t99 22q50 0 86.5 -20t60 -54t34.5 -78.5t11 -92.5zM372 439q0 19 -3 40t-10.5 38.5t-19.5 29t-29 11.5
q-23 0 -41.5 -18.5t-33 -48.5t-25.5 -67.5t-18.5 -74.5t-11 -70t-3.5 -55q0 -19 3 -40t10.5 -38.5t19.5 -29t29 -11.5q23 0 42 18.5t33.5 48.5t25.5 67.5t18 74.5t10.5 70t3.5 55z" />
    <glyph glyph-name="one" unicode="1" 
d="M378 146q-4 -20 -6 -35.5t-2 -28.5q0 -36 11.5 -55t23.5 -27h-216l99 474l-186 -173l32 153q40 35 80 72q34 32 72 69t68 71h132z" />
    <glyph glyph-name="two" unicode="2" 
d="M533 504q0 -49 -23 -94t-60 -88.5t-83.5 -86t-93.5 -86.5l-28 -26h131q30 0 51 8t35 19t21.5 21t11.5 15l-40 -186h-507l206 192q41 38 80.5 77t71 76.5t50.5 73t19 65.5q0 21 -7.5 37t-19.5 26t-27 15t-31 5q-40 0 -64 -21t-24 -51q0 -19 12.5 -35.5t38.5 -22.5
l-114 -111q-41 17 -61.5 53.5t-20.5 81.5q0 38 16.5 77.5t49.5 71t82.5 51.5t116.5 20q45 0 83.5 -12t67 -34.5t44.5 -55.5t16 -75z" />
    <glyph glyph-name="three" unicode="3" 
d="M541 518q0 -38 -13.5 -70t-37 -56.5t-54.5 -40.5t-66 -21q60 -21 88 -61t28 -82q0 -54 -27 -92.5t-68 -63t-89.5 -35.5t-92.5 -11q-51 0 -90 11.5t-67 31.5t-45 47t-22 58l164 88q-2 -20 1 -34q6 -34 28.5 -59.5t61.5 -25.5q44 0 66.5 20t22.5 47q0 19 -13 39.5
t-37.5 37.5t-61 29t-82.5 15l49 101q4 -1 12 -2t17 -2t18 -1.5t16 -0.5q24 0 48.5 7t44 21t31.5 35t12 48q0 19 -7.5 32.5t-19.5 22.5t-27 13t-31 4t-31 -4t-27 -11.5t-19 -18t-7 -24.5q0 -17 13 -27l-151 -55q-16 27 -13 60q5 54 34 90.5t69.5 59.5t87.5 33t89 10
q34 0 69.5 -9.5t64 -29.5t46.5 -50.5t18 -73.5z" />
    <glyph glyph-name="four" unicode="4" 
d="M440 251h63l-26 -116h-62l-6 -29q-6 -32 -6 -51q0 -23 5 -35.5t13 -19.5h-186l31 135h-292l10 48l339 483h203zM292 251l66 291l-199 -291h133z" />
    <glyph glyph-name="five" unicode="5" 
d="M493 544h-223l-41 -126l45 -2q57 -3 98 -18.5t67 -41t38.5 -58t12.5 -69.5q0 -47 -18.5 -91t-55 -78t-90.5 -54t-126 -20q-93 0 -145 36t-62 100l157 96q-2 -14 0 -29q5 -42 28.5 -65t59.5 -23q24 0 42 9.5t30 24t18 32t6 33.5q0 21 -8 40.5t-25.5 34.5t-46 24.5
t-68.5 10.5l-130 2l116 354h246q34 0 56 2.5t36 5.5t21 6.5t10 5.5z" />
    <glyph glyph-name="six" unicode="6" 
d="M561 665q-57 -21 -106 -46.5t-92.5 -57t-81.5 -69.5t-74 -85l6 -5q27 21 59.5 31.5t64.5 10.5q76 0 121.5 -49t45.5 -132q0 -47 -18 -96t-54.5 -90t-91 -67t-126.5 -26q-48 0 -85.5 15t-64 43t-40.5 66.5t-14 86.5q0 71 22.5 143t64.5 137.5t101.5 119t133.5 87.5z
M347 234q0 50 -24 74.5t-56 24.5q-18 0 -36.5 -8.5t-33.5 -26t-24 -42.5t-9 -58q0 -49 24.5 -73t56.5 -24q42 0 72 36t30 97z" />
    <glyph glyph-name="seven" unicode="7" 
d="M411 384q-48 -71 -82 -127.5t-56.5 -103t-36 -84t-20.5 -69.5h-203q19 34 46 77.5t58 92.5t64.5 100.5t67 101t66 95t59.5 81.5h-179q-51 0 -85.5 -21t-57.5 -50l61 189h492z" />
    <glyph glyph-name="eight" unicode="8" 
d="M529 533q0 -33 -10.5 -61t-29 -50.5t-43.5 -38t-53 -22.5q53 -23 78.5 -63t25.5 -85q0 -48 -22 -89.5t-60 -72.5t-89.5 -49t-111.5 -18q-42 0 -81 10t-68.5 30.5t-47.5 51.5t-18 73q0 37 13 69.5t35.5 57.5t53.5 42t67 25q-45 25 -64 60.5t-19 74.5q0 50 22.5 88t58 63.5
t80.5 38.5t90 13q37 0 72 -9t62 -27.5t43 -46.5t16 -65zM383 502q0 35 -21 52.5t-47 17.5q-15 0 -29 -5.5t-25.5 -17t-18.5 -28.5t-7 -39q0 -37 20.5 -55t46.5 -18q15 0 29.5 6t26 18t18.5 29t7 40zM331 202q0 41 -24.5 61t-55.5 20q-17 0 -34.5 -7t-31 -21t-22 -34
t-8.5 -47q0 -39 24.5 -58.5t55.5 -19.5q17 0 34.5 7t31 20.5t22 33t8.5 45.5z" />
    <glyph glyph-name="nine" unicode="9" 
d="M531 470q0 -71 -22.5 -142t-64 -134.5t-101 -116t-133.5 -86.5l-229 17q57 21 106 45.5t91.5 54t80.5 66.5t74 84l-6 5q-27 -21 -59.5 -31.5t-64.5 -10.5q-76 0 -121 49.5t-45 132.5q0 46 18 95.5t54 90t90.5 66.5t126.5 26q48 0 86 -15t64.5 -43t40.5 -66.5t14 -86.5z
M376 467q0 49 -24.5 73t-56.5 24q-42 0 -72 -36t-30 -97q0 -50 24 -74t56 -24q18 0 36.5 8.5t33.5 25.5t24 42t9 58z" />
    <glyph glyph-name="colon" unicode=":" horiz-adv-x="261" 
d="M241 382q0 -45 -30.5 -74t-74.5 -29q-38 0 -61 24t-23 62q0 45 30 75t75 30q39 0 61.5 -25t22.5 -63zM180 88q0 -45 -30.5 -74t-74.5 -29q-38 0 -61 24t-23 62q0 45 30 74.5t75 29.5q39 0 61.5 -24.5t22.5 -62.5z" />
    <glyph glyph-name="semicolon" unicode=";" horiz-adv-x="261" 
d="M246 382q0 -45 -30.5 -74t-74.5 -29q-38 0 -61 24t-23 62q0 45 30 75t75 30q39 0 61.5 -25t22.5 -63zM177 59q0 -36 -17 -77.5t-49.5 -77t-80.5 -59t-110 -23.5q-7 0 -13 0.5t-13 1.5q27 9 53.5 26t47 39.5t34 49.5t15.5 56q0 2 0.5 5t0.5 5q-4 0 -8 1t-7 2q-24 5 -37 24
t-13 45q0 21 8 39t21.5 31t31.5 20.5t39 7.5q18 0 35.5 -6.5t31 -21t22 -36.5t8.5 -52z" />
    <glyph glyph-name="less" unicode="&#x3c;" horiz-adv-x="695" 
d="M95 249l17 78l544 270l-26 -121l-391 -190l-1 -6l313 -179l-26 -122z" />
    <glyph glyph-name="equal" unicode="=" horiz-adv-x="695" 
d="M82 341l23 107h553l-23 -107h-553zM36 123l23 107h553l-23 -107h-553z" />
    <glyph glyph-name="greater" unicode="&#x3e;" horiz-adv-x="695" 
d="M38 -21l26 122l391 189l1 6l-313 180l26 121l430 -270l-17 -78z" />
    <glyph glyph-name="question" unicode="?" horiz-adv-x="461" 
d="M503 550q0 -43 -19.5 -75.5t-49 -58.5t-63.5 -47.5t-63.5 -42.5t-49 -43t-19.5 -50q0 -14 8 -18.5t20 -6.5q-17 -16 -36.5 -22t-37.5 -6t-35 4.5t-31 13.5t-22.5 23.5t-8.5 34.5q0 36 16.5 64t42 50t54.5 39.5t54.5 35t42 35.5t16.5 41q0 20 -16 31.5t-43 11.5
q-21 0 -45.5 -8t-48.5 -22.5t-46.5 -34t-39.5 -41.5l38 185q36 17 88.5 28t105.5 11q41 0 75.5 -7.5t59.5 -24t39 -41.5t14 -59zM226 72q0 -36 -25 -60t-61 -24q-32 0 -50.5 19t-18.5 51q0 36 25 61t61 25q32 0 50.5 -20t18.5 -52z" />
    <glyph glyph-name="at" unicode="@" horiz-adv-x="951" 
d="M895 315q0 -61 -20 -119t-56.5 -103.5t-89.5 -73t-119 -27.5q-63 0 -91 27q-15 15 -24 37q-27 -33 -62.5 -48.5t-75.5 -15.5q-33 0 -57.5 13t-40 35t-23.5 51.5t-8 63.5q0 52 18 108.5t51.5 103.5t82 77t110.5 30q16 0 31 -2t29 -5q15 -3 26.5 -6.5t23.5 -3.5
q17 0 39 7.5t43 19.5l-67 -329q-2 -8 -4.5 -23.5t-2.5 -24.5q0 -17 7.5 -33.5t27.5 -16.5q37 0 70.5 19t58.5 53t39.5 81.5t14.5 103.5q0 60 -22.5 110t-63 86.5t-98 56.5t-126.5 20q-84 0 -158.5 -29.5t-130 -81t-88 -122t-32.5 -153.5q0 -77 28.5 -139t79.5 -105.5
t122 -67.5t155 -24q94 0 183 30t150 88l51 -36q-33 -33 -78 -59t-95.5 -43t-103.5 -26t-104 -9q-113 0 -198 28.5t-142 79.5t-86 121t-29 153q0 96 38 177.5t103.5 141.5t153.5 94.5t188 34.5q83 0 151.5 -24t117.5 -67t76 -103t27 -131zM510 330q0 26 -8 42t-27 16
q-18 0 -36.5 -18.5t-33.5 -50t-24.5 -72t-9.5 -84.5q0 -30 10 -50t31 -20q20 0 36.5 22.5t27.5 54.5q5 15 11 37.5t11 46.5t8.5 44.5t3.5 31.5z" />
    <glyph glyph-name="A" unicode="A" horiz-adv-x="723" 
d="M600 103q3 -32 10 -51.5t15 -31t15 -15.5t10 -5h-261q3 0 9 3t12 11t11 22.5t5 38.5v7.5t-1 7.5l-6 47h-233l-19 -35q-14 -26 -21 -42.5t-7 -27.5q0 -19 9.5 -25t14.5 -7h-242q3 1 11 5t21.5 16t31.5 34t41 58l357 553h156zM389 462l-135 -219h154z" />
    <glyph glyph-name="B" unicode="B" horiz-adv-x="630" 
d="M613 504q0 -28 -9.5 -54.5t-27.5 -49t-43.5 -39t-58.5 -22.5q26 -7 46 -22t34 -35.5t21.5 -45t7.5 -49.5q0 -34 -15 -67.5t-49 -60t-88 -43t-132 -16.5h-333q3 1 11 4t17 11.5t18 24t15 41.5l105 504q3 13 3 25q0 17 -5.5 27.5t-12.5 16.5t-13.5 8.5t-9.5 3.5h300
q39 0 78.5 -10t70.5 -30t50.5 -50.5t19.5 -71.5zM402 194q0 20 -6 38t-18 32t-29.5 22.5t-40.5 8.5h-60l-40 -193h87q28 0 48 8t33 21t19.5 29.5t6.5 33.5zM434 485q0 15 -4 29t-12.5 25.5t-22 18.5t-32.5 7h-58l-35 -170h75q22 0 38.5 8t28 21t17 29t5.5 32z" />
    <glyph glyph-name="C" unicode="C" horiz-adv-x="558" 
d="M550 453q-17 58 -50.5 85t-72.5 27q-48 0 -87.5 -30t-68 -75.5t-44 -100.5t-15.5 -104q0 -68 30 -110.5t95 -42.5q41 0 85 20t79 67l-31 -141q-33 -32 -86.5 -47.5t-111.5 -15.5q-56 0 -102 19.5t-79 54.5t-51 83.5t-18 106.5q0 84 32.5 161.5t89.5 137.5t133.5 95.5
t164.5 35.5q54 0 92.5 -12t56.5 -24z" />
    <glyph glyph-name="D" unicode="D" horiz-adv-x="683" 
d="M665 367q0 -66 -23.5 -132t-71 -118t-119 -84.5t-167.5 -32.5h-317q4 1 11.5 4t16.5 12.5t18 27t15 46.5l103 494q3 16 3 30q0 15 -4 25t-10 15.5t-11.5 8t-8.5 3.5h285q59 0 110 -18.5t89 -55.5t59.5 -93t21.5 -132zM476 389q0 37 -7.5 68t-22.5 54t-38.5 36t-55.5 13
h-50q-5 -26 -13 -62.5t-16.5 -78.5t-18 -87t-18.5 -87t-16.5 -78t-12.5 -61h75q45 0 81 26t61 67.5t38.5 91.5t13.5 98z" />
    <glyph glyph-name="E" unicode="E" horiz-adv-x="572" 
d="M548 472q-3 47 -33 65t-78 18h-120l-34 -160h97q28 0 46 4.5t28.5 10.5t15 12t5.5 9l-38 -183q-1 12 -8.5 19.5t-19 12t-25.5 6.5t-26 2h-97l-36 -177h126q33 0 56 3.5t41 13t32.5 25.5t30.5 41l-41 -194h-503q4 1 14 4t21 12t21.5 25t16.5 42l109 504q3 13 3 26
q0 26 -12 38.5t-26 14.5h473z" />
    <glyph glyph-name="F" unicode="F" horiz-adv-x="562" 
d="M547 472q-3 47 -33 65t-78 18h-119l-33 -160h98q28 0 46 4.5t28 10.5t14.5 12t5.5 9l-38 -183q-1 12 -9 19.5t-19.5 12t-25 6.5t-25.5 2h-98l-43 -207q-2 -8 -3 -14.5t-1 -12.5q0 -16 5 -26.5t11.5 -16.5t13 -8.5t9.5 -2.5h-286q4 1 14 4t21 12t21.5 25t16.5 42l109 504
q3 15 3 26q0 16 -5 26t-11.5 15.5t-13.5 8t-10 3.5h474z" />
    <glyph glyph-name="G" unicode="G" horiz-adv-x="626" 
d="M585 453q-9 34 -23 56t-32.5 34.5t-40.5 17t-45 4.5q-50 0 -92.5 -29t-73.5 -74.5t-48.5 -102t-17.5 -110.5q0 -34 7.5 -63t22.5 -50t37 -32.5t51 -11.5q4 0 10.5 1t10.5 2l24 131q1 5 1.5 10.5t0.5 10.5q0 27 -12.5 40t-26.5 15h275q-3 -1 -11.5 -3.5t-18 -10t-18.5 -21
t-13 -35.5l-41 -199q-17 -11 -42 -20.5t-54 -16t-60 -10t-60 -3.5q-132 0 -202.5 69t-70.5 193q0 82 34.5 160.5t95 140t143 98.5t179.5 37q42 0 84.5 -9.5t67.5 -28.5z" />
    <glyph glyph-name="H" unicode="H" horiz-adv-x="731" 
d="M538 616q0 15 -4.5 24.5t-10 15t-11.5 7.5l-9 3h275q-4 -1 -12.5 -4.5t-18.5 -11.5t-19.5 -22.5t-14.5 -36.5l-110 -515q-2 -8 -3 -14t-1 -12q0 -15 4 -24.5t10 -15t12 -8t9 -2.5h-273q4 0 12.5 3t18.5 11t19 21.5t14 36.5l45 216h-220l-44 -212q-3 -15 -3 -26
q0 -15 4 -24.5t10 -15t12 -8t9 -2.5h-272q3 0 11.5 3t18 11t18.5 21.5t14 36.5l110 515q3 16 3 29q0 15 -4 24.5t-10 15t-11.5 7.5t-8.5 3h275q-4 -1 -13 -4.5t-19 -11.5t-19.5 -22.5t-14.5 -36.5l-43 -196h220l42 192q3 16 3 29z" />
    <glyph glyph-name="I" unicode="I" horiz-adv-x="335" 
d="M142 613q0 26 -11 38.5t-24 14.5h275q-4 -1 -13 -4.5t-19 -11.5t-19.5 -22.5t-14.5 -36.5l-110 -515q-3 -14 -3 -25q0 -25 10.5 -37.5t22.5 -13.5h-269q4 0 12 3t17.5 11t18.5 21.5t14 36.5l109 515q2 8 3 14t1 12z" />
    <glyph glyph-name="J" unicode="J" horiz-adv-x="335" 
d="M143 615q0 15 -4.5 24.5t-10 15t-11.5 8t-9 3.5h274q-4 -1 -12.5 -4.5t-18.5 -11.5t-19.5 -22.5t-14.5 -36.5l-115 -536q-8 -39 -33 -76.5t-65 -66.5t-93.5 -47t-118.5 -18q48 23 81.5 71.5t52.5 136.5l113 532q2 8 3 15t1 13z" />
    <glyph glyph-name="K" unicode="K" horiz-adv-x="694" 
d="M517 648q0 10 -6 13.5t-10 4.5h244q-2 -1 -9 -4t-19.5 -11t-31.5 -23.5t-45 -40.5l-216 -213l119 -268q20 -46 50.5 -73.5t50.5 -32.5h-234l-151 331l-53 -255q-3 -15 -3 -25q0 -15 4.5 -25t10.5 -15.5t12 -8t9 -2.5h-273q3 0 11.5 3t18 11t18.5 21.5t14 36.5l110 515
q3 15 3 27q0 15 -4.5 25t-10.5 15.5t-12.5 8t-10.5 3.5h275q-4 -1 -12 -4t-17.5 -11.5t-18.5 -22.5t-14 -37l-49 -226l200 206q29 30 39.5 48.5t10.5 28.5z" />
    <glyph glyph-name="L" unicode="L" horiz-adv-x="543" 
d="M447 0h-481q3 0 10.5 3t16.5 11t17.5 21.5t13.5 36.5l110 515q3 15 3 27q0 15 -4.5 25t-10.5 15.5t-12.5 8t-10.5 3.5h275q-4 -1 -12 -4.5t-17.5 -11.5t-18.5 -22.5t-14 -36.5l-103 -480h116q34 0 59.5 5.5t45 17.5t34 30t28.5 43z" />
    <glyph glyph-name="M" unicode="M" horiz-adv-x="916" 
d="M692 666h261q-4 -1 -14.5 -5.5t-22.5 -17t-24.5 -35.5t-20.5 -61l-92 -423q-4 -17 -5 -30t-1 -24q0 -21 4.5 -34.5t11 -21t13 -10.5t9.5 -4h-275q4 1 12.5 5.5t19.5 17.5t22.5 37t20.5 64l71 320l-304 -460l-119 461l-68 -316q-6 -30 -6 -52q0 -24 6 -39t13.5 -23t15 -11
t11.5 -4h-264q5 1 16.5 5.5t25 18.5t27.5 39t23 67l91 420q3 13 4 24t1 20q0 22 -6.5 35.5t-14.5 21.5t-16.5 11t-12.5 4h256l94 -365z" />
    <glyph glyph-name="N" unicode="N" horiz-adv-x="692" 
d="M550 613q0 16 -5 26t-12 15.5t-14 8t-10 3.5h231q-3 -1 -11 -4t-16.5 -11t-17 -21.5t-12.5 -35.5l-128 -594h-131q-1 4 -4.5 19t-9.5 36.5t-15.5 46.5t-21.5 48l-135 255l-70 -334q-2 -6 -2 -10.5v-9.5q0 -15 5 -24.5t12 -15.5t14 -8.5t10 -2.5h-240q4 0 13.5 3t19 10.5
t18.5 20.5t14 34l105 488q1 4 2 8.5t1 9.5q0 8 -5.5 22t-14.5 28t-20 26t-23 16h217l193 -367l60 291q3 12 3 23z" />
    <glyph glyph-name="O" unicode="O" horiz-adv-x="691" 
d="M676 416q0 -80 -29.5 -157.5t-82.5 -138.5t-126 -98t-159 -37q-61 0 -108.5 19.5t-80.5 55t-50.5 85t-17.5 109.5q0 83 30 160.5t83.5 137t125.5 95t156 35.5q63 0 111.5 -20t81.5 -56t49.5 -84.5t16.5 -105.5zM486 428q0 60 -21 98.5t-68 38.5q-41 0 -74.5 -31
t-57.5 -79t-37.5 -106t-13.5 -112q0 -60 20.5 -97.5t65.5 -37.5q42 0 76 31t58.5 78.5t38 105t13.5 111.5z" />
    <glyph glyph-name="P" unicode="P" horiz-adv-x="621" 
d="M620 483q0 -43 -18 -86t-53.5 -77.5t-86.5 -56t-117 -21.5q-23 0 -51 3t-51 10l-38 -179q-3 -15 -3 -25q0 -15 4.5 -25t10.5 -15.5t12 -8t9 -2.5h-272q3 0 11.5 3t18 11t18.5 21.5t14 36.5l111 515q2 7 3 14t1 13q0 15 -4.5 25t-10.5 15.5t-12.5 8t-10.5 3.5h291
q57 0 99.5 -15t70 -40.5t41 -58.5t13.5 -69zM443 479q0 35 -18.5 60.5t-54.5 25.5h-59l-47 -209q11 -4 25.5 -6t25.5 -2q32 0 56 12t40 30.5t24 42t8 46.5z" />
    <glyph glyph-name="Q" unicode="Q" horiz-adv-x="691" 
d="M676 416q0 -57 -15.5 -113.5t-44 -107t-69 -92.5t-89.5 -70q19 -27 44 -46.5t51.5 -33t53 -20t49.5 -6.5q-41 -23 -86 -34t-91 -11q-70 0 -134 26t-106 78q-1 0 -1 0.5t1 0.5q-52 6 -92.5 28t-68 56.5t-42 81t-14.5 101.5q0 83 30 160.5t83.5 137t125.5 95t156 35.5
q63 0 111.5 -20t81.5 -56t49.5 -84.5t16.5 -105.5zM486 428q0 60 -21 98.5t-68 38.5q-41 0 -74.5 -31t-57.5 -79t-37.5 -106t-13.5 -112q0 -60 20.5 -97.5t65.5 -37.5q42 0 76 31t58.5 78.5t38 105t13.5 111.5z" />
    <glyph glyph-name="R" unicode="R" horiz-adv-x="641" 
d="M625 490q0 -36 -13.5 -71.5t-38 -64t-58 -48.5t-73.5 -26q6 -6 13 -17t12 -27l54 -148q10 -28 22 -45t23 -26.5t18.5 -13t9.5 -3.5h-231l-67 218q-7 23 -16.5 41.5t-20.5 18.5h-9l-46 -202q-2 -8 -3 -14.5t-1 -11.5q0 -15 4.5 -24.5t10.5 -15t12.5 -8t9.5 -2.5h-271
q4 0 12 3t17.5 11t18.5 21.5t14 36.5l110 515q2 7 3 13.5t1 13.5q0 15 -4.5 25t-10.5 15.5t-12.5 8t-10.5 3.5h293q56 0 98.5 -13t71.5 -36.5t43.5 -56t14.5 -70.5zM448 482q0 37 -21 60t-51 23h-66l-42 -202h55q30 0 53.5 10t39 26.5t24 38t8.5 44.5z" />
    <glyph glyph-name="S" unicode="S" horiz-adv-x="531" 
d="M484 453q-30 54 -73.5 83t-85.5 29q-32 0 -52 -15t-20 -46q0 -24 17.5 -44t43 -39t56 -39.5t56 -46.5t43 -58t17.5 -75q0 -46 -19 -85.5t-54.5 -69t-86.5 -46.5t-115 -17q-36 0 -70.5 6t-64 15t-52 20t-35.5 21l46 213q13 -39 33.5 -68t45.5 -48t53 -28.5t57 -9.5
q35 0 56 18.5t21 47.5q0 23 -16.5 42t-41.5 36.5t-54 37t-54 44.5t-41.5 58t-16.5 78t18.5 84t52 68t81 46t105.5 17q35 0 65 -5.5t53.5 -13.5t40.5 -17t28 -15z" />
    <glyph glyph-name="T" unicode="T" horiz-adv-x="621" 
d="M637 470q-2 24 -8 40.5t-19.5 27t-35.5 15.5t-56 5h-68l-103 -482q-3 -15 -3 -26q0 -15 4 -24.5t10 -15t12 -8t9 -2.5h-272q4 0 12.5 3t18.5 11t19 21.5t14 36.5l103 486h-71q-28 0 -51.5 -3.5t-42.5 -13t-34 -27t-27 -44.5l46 196h586z" />
    <glyph glyph-name="U" unicode="U" horiz-adv-x="675" 
d="M517 620q0 13 -4 21.5t-9.5 14t-11 7.5t-8.5 3h235q-4 -1 -12 -4t-17.5 -10.5t-17.5 -20t-12 -31.5l-75 -363q-15 -74 -42 -123t-65.5 -77.5t-90 -40t-116.5 -11.5q-135 0 -189.5 69t-24.5 205l76 344q2 5 2 10v9q0 13 -4.5 21t-10.5 13t-12 7t-10 3h274
q-4 -1 -12.5 -3.5t-18 -9.5t-18.5 -19t-13 -31l-80 -366q-17 -74 2.5 -103.5t77.5 -29.5q47 0 80.5 27.5t45.5 84.5l79 381q2 7 2 12.5v10.5z" />
    <glyph glyph-name="V" unicode="V" horiz-adv-x="695" 
d="M545 632q0 9 -3.5 15.5t-8 10t-9 5.5t-7.5 3h257q-3 -1 -12 -5t-23 -16t-33 -33.5t-42 -57.5l-357 -554h-131l-61 563q-4 33 -10.5 52.5t-13.5 30.5t-13 15t-9 5h261q-3 -1 -10 -3.5t-14 -10t-12.5 -20.5t-5.5 -34q0 -5 0.5 -10.5t1.5 -11.5l35 -318l193 306q15 23 21 40
t6 28z" />
    <glyph glyph-name="W" unicode="W" horiz-adv-x="987" 
d="M851 630q0 10 -3 16.5t-7.5 10.5t-9 6t-7.5 3h249q-4 -1 -13.5 -5t-22.5 -15t-29 -31t-34 -51l-323 -564h-132l-27 329l-190 -329h-132l-51 563q-3 32 -9.5 52t-13 31t-12.5 15t-9 5h260q-4 -1 -11 -4t-14 -10.5t-12 -20.5t-5 -35q0 -5 0.5 -10t1.5 -10l27 -320l150 262
l-4 45q-3 33 -8.5 52.5t-11.5 30.5t-11.5 15t-7.5 5h246q-3 -1 -10 -4t-14 -10.5t-12.5 -21.5t-5.5 -36v-9t1 -9l26 -319l170 311q11 21 16 36t5 26z" />
    <glyph glyph-name="X" unicode="X" horiz-adv-x="647" 
d="M498 645q0 11 -7.5 15t-11.5 6h242q-3 -1 -9.5 -3.5t-17.5 -10t-26.5 -21.5t-34.5 -37l-215 -249l106 -261q10 -26 20 -42.5t18 -25.5t14 -12t9 -4h-257q5 1 14 8t9 29q0 17 -12 47l-47 117l-100 -117q-20 -23 -27 -38t-7 -24q0 -12 6 -16.5t8 -5.5h-239q3 0 9 3.5
t17 12.5t27 25t39 43l214 246l-107 264q-9 22 -18 36t-17 21.5t-14 10.5t-9 4h259q-4 -2 -15 -8.5t-11 -27.5q0 -14 9 -36l49 -121l105 121q16 18 22 30.5t6 20.5z" />
    <glyph glyph-name="Y" unicode="Y" horiz-adv-x="617" 
d="M498 644q0 12 -7 16t-11 6h225q-3 -1 -10.5 -4t-18 -10.5t-23.5 -21.5t-29 -36l-244 -338l-40 -180q-3 -15 -3 -26q0 -15 4 -24.5t10 -15t12 -8t9 -2.5h-271q4 0 12.5 3t18 11t19 21.5t14.5 36.5l40 184l-86 338q-6 22 -14.5 35.5t-17.5 21.5t-16.5 11t-10.5 4h252
q-4 -2 -12 -9t-8 -31q0 -7 1.5 -14.5l3.5 -17.5l46 -186l131 183q14 19 19 32t5 21z" />
    <glyph glyph-name="Z" unicode="Z" horiz-adv-x="599" 
d="M240 111h141q33 0 58.5 5t45 15.5t35 25.5t28.5 35l-48 -192h-545q4 6 23 33t48 67t65 89t72 100q85 119 192 266h-151q-39 0 -64 -8.5t-40 -19.5t-22 -21.5t-9 -14.5l44 175h529z" />
    <glyph glyph-name="bracketleft" unicode="[" horiz-adv-x="346" 
d="M384 598h-149l-144 -692h150l-18 -87h-274l180 864h273z" />
    <glyph glyph-name="backslash" unicode="\" horiz-adv-x="459" 
d="M250 -15l-167 699h132l169 -699h-134z" />
    <glyph glyph-name="bracketright" unicode="]" horiz-adv-x="346" 
d="M196 -181h-274l18 87h149l144 692h-149l18 85h273z" />
    <glyph glyph-name="asciicircum" unicode="^" horiz-adv-x="695" 
d="M433 156l-65 375h-4l-214 -375h-123l321 524h110l100 -524h-125z" />
    <glyph glyph-name="underscore" unicode="_" horiz-adv-x="566" 
d="M498 -140h-575l13 62h576z" />
    <glyph glyph-name="grave" unicode="`" horiz-adv-x="506" 
d="M153 666h194l7 -165z" />
    <glyph glyph-name="a" unicode="a" horiz-adv-x="547" 
d="M446 161q-3 -14 -6.5 -32.5t-3.5 -32.5q0 -24 14 -37.5t37 -16.5l7 -1l-226 -56l7 62q-33 -32 -74 -47t-76 -15q-30 0 -53 13t-38.5 35.5t-23 52.5t-7.5 65q0 67 23.5 126t64.5 103t95.5 69.5t116.5 25.5q14 0 30.5 -1t34.5 -4t31 -5.5t26 -2.5q43 0 91 24zM322 349
q0 37 -29 37q-24 0 -46 -19t-39.5 -50t-28 -71t-10.5 -81q0 -26 8.5 -46t31.5 -20q18 0 39 22t34 54q4 11 11 35t13.5 51t11 51.5t4.5 36.5z" />
    <glyph glyph-name="b" unicode="b" horiz-adv-x="542" 
d="M503 330q0 -52 -17 -111.5t-53.5 -110.5t-93.5 -84.5t-138 -33.5q-21 0 -38 3t-35 7q-19 4 -32.5 7t-27.5 3q-17 0 -34 -4.5t-38 -16.5l128 594q1 4 1 7.5v6.5q0 20 -16 28.5t-37 11.5l-7 1l243 58l-58 -268q26 27 63 42t65 15q59 0 92 -42t33 -113zM332 301q0 68 -34 68
q-23 0 -39 -14t-29 -34q-6 -9 -13.5 -37t-14.5 -60t-11.5 -61t-4.5 -41q0 -20 10.5 -26t30.5 -6q23 0 42 21.5t33 53.5t22 68.5t8 67.5z" />
    <glyph glyph-name="c" unicode="c" horiz-adv-x="438" 
d="M424 394q0 -24 -10.5 -48.5t-29 -44t-43 -32t-52.5 -12.5q6 7 10 21.5t4 31.5q0 25 -9.5 47t-32.5 22q-18 0 -34.5 -13.5t-30 -37t-21.5 -54.5t-8 -66q0 -53 24 -85.5t72 -32.5q31 0 65.5 15t64.5 43q-14 -41 -38.5 -71.5t-54.5 -51t-64 -31t-67 -10.5q-80 0 -123.5 47.5
t-43.5 124.5q0 69 24.5 129t66.5 104t99 69.5t122 25.5q50 0 80 -24.5t30 -65.5z" />
    <glyph glyph-name="d" unicode="d" horiz-adv-x="540" 
d="M433 119q-4 -17 -4 -33q0 -13 4.5 -21t12.5 -12.5t18 -7t21 -3.5l7 -1l-232 -56l15 59q-31 -29 -66.5 -43.5t-69.5 -14.5q-28 0 -52.5 10t-43 30t-29.5 51t-11 72q0 65 22 125.5t58.5 107.5t82.5 75t94 28q31 0 50.5 -6.5t34.5 -23.5l31 132q1 3 1 8q0 10 -5.5 17.5
t-14 12.5t-19 7.5t-20.5 4.5l-7 1l248 58zM314 318q0 31 -10 46t-35 15q-19 0 -37 -22t-32 -54t-22.5 -69.5t-8.5 -68.5q0 -26 7.5 -47.5t29.5 -21.5q15 0 33 12.5t38 44.5q6 9 12.5 31t12 47.5t9 49.5t3.5 37z" />
    <glyph glyph-name="e" unicode="e" horiz-adv-x="468" 
d="M455 365q0 -29 -15 -61.5t-49.5 -61t-91 -48.5t-140.5 -24q1 -6 3 -12t4 -11q12 -29 35 -42.5t54 -13.5q38 0 80 16t75 41q-12 -40 -36 -70.5t-54 -51.5t-65 -31.5t-70 -10.5q-86 0 -134 50t-48 134q0 60 23 117t64.5 101t99 71t126.5 27q24 0 49 -6.5t45 -20.5
t32.5 -36.5t12.5 -55.5zM317 350q0 19 -10.5 29.5t-27.5 10.5q-15 0 -33.5 -9.5t-36 -27.5t-31.5 -43.5t-20 -57.5q19 1 46 6.5t52 17.5t43 30t18 44z" />
    <glyph glyph-name="f" unicode="f" horiz-adv-x="385" 
d="M444 620q0 -25 -18 -46t-53 -26q7 10 7 21q0 13 -9 22.5t-24 9.5q-11 0 -20.5 -5.5t-17.5 -21t-15.5 -42t-15.5 -68.5h125l-18 -95h-124l-78 -376q-11 -50 -29 -84.5t-42.5 -56.5t-54.5 -31.5t-65 -9.5q-38 0 -68.5 16t-50.5 48q10 -2 19 -3t18 -1q52 0 76.5 33.5
t35.5 88.5l78 376h-77l18 95h77q10 51 28.5 93t45.5 72t63 46.5t81 16.5q53 0 80.5 -21.5t27.5 -50.5z" />
    <glyph glyph-name="g" unicode="g" horiz-adv-x="546" 
d="M539 379h-91q8 -6 14 -27.5t6 -39.5q0 -43 -22.5 -75t-58.5 -53.5t-80 -32t-86 -10.5h-12t-11 1q-11 -5 -24.5 -10.5t-13.5 -13.5q0 -6 11 -10.5t29.5 -8.5t44.5 -8t56 -10q33 -7 60.5 -16.5t48 -24t32 -34t11.5 -46.5q0 -38 -24.5 -66.5t-63.5 -47t-88 -27.5t-99 -9
q-113 0 -174 30.5t-61 81.5q0 10 8.5 22.5t25 25t41.5 23.5t58 17q-33 13 -54.5 32.5t-21.5 41.5q0 26 30.5 47.5t76.5 38.5q-30 19 -49.5 48.5t-19.5 68.5q0 51 21.5 88t57.5 61t82 36t95 12q26 0 50.5 -3.5t45.5 -8.5q34 -8 77 -8q26 0 50.5 5t42.5 16zM320 326
q0 31 -15 50.5t-42 19.5q-30 0 -50 -27t-20 -69q0 -31 14 -51t40 -20q31 0 52 28t21 69zM286 -69q0 27 -34 37t-92 18q-33 -8 -52 -21t-19 -28q0 -8 5.5 -15t18 -13t33.5 -9.5t52 -3.5q16 0 32 2.5t28.5 7t20 11t7.5 14.5z" />
    <glyph glyph-name="h" unicode="h" horiz-adv-x="538" 
d="M495 395q0 -14 -2 -28t-5 -28l-48 -230q-3 -14 -3 -40q0 -25 6.5 -45t20.5 -24h-206l68 312q3 12 3 22q0 46 -37 46q-9 0 -20.5 -5t-22 -13.5t-18.5 -20.5t-11 -26q-13 -60 -25 -117q-11 -49 -22 -103.5t-20 -94.5h-158l126 583q2 10 2 14q0 19 -16.5 28t-33.5 12l-6 1
l238 58l-59 -263q28 23 68 37.5t80 14.5q19 0 37.5 -4t32.5 -14.5t22.5 -28t8.5 -43.5z" />
    <glyph glyph-name="i" unicode="i" horiz-adv-x="286" 
d="M179 109q-6 -26 -6 -49q0 -29 8.5 -43.5t19.5 -16.5h-206l82 373q1 3 1 9q0 10 -5 17.5t-13 13.5t-17.5 9.5t-17.5 4.5l-8 1l243 58zM286 612q0 -41 -27.5 -68t-68.5 -27q-35 0 -56.5 22t-21.5 57q0 41 28 68.5t69 27.5q36 0 56.5 -22.5t20.5 -57.5z" />
    <glyph glyph-name="j" unicode="j" horiz-adv-x="289" 
d="M286 612q0 -41 -27.5 -68t-68.5 -27q-35 0 -56.5 22t-21.5 57q0 41 28 68.5t69 27.5q36 0 56.5 -22.5t20.5 -57.5zM157 0q-10 -46 -29 -80t-44 -56t-55 -33t-61 -11q-55 0 -97 18.5t-56 41.5q24 -6 44 -6q50 0 86.5 27.5t51.5 98.5l79 373q1 3 1 8q0 10 -5.5 17.5
t-14 13.5t-18 9.5t-17.5 5.5l-5 1l243 58z" />
    <glyph glyph-name="k" unicode="k" horiz-adv-x="570" 
d="M354 442q0 11 -7 15.5t-11 6.5h265q-5 -1 -16.5 -4.5t-28 -12t-37.5 -23t-44 -38.5l-126 -131l80 -165q32 -65 97 -65q-26 -17 -61.5 -27t-71.5 -10t-65 14t-44 47l-82 184l-47 -233h-160l126 585q1 3 1 9q0 10 -5.5 17t-13.5 12.5t-17.5 8.5t-17.5 5l-6 1l243 58
l-95 -426l113 119q18 19 24.5 32t6.5 21z" />
    <glyph glyph-name="l" unicode="l" horiz-adv-x="286" 
d="M178 109q-6 -27 -6 -50q0 -28 8.5 -42.5t19.5 -16.5h-205l126 583q2 8 2 12q0 19 -15 29t-35 13l-6 1l238 58z" />
    <glyph glyph-name="m" unicode="m" horiz-adv-x="811" 
d="M762 395q0 -14 -2 -28t-5 -28l-47 -230q-2 -6 -2.5 -16.5t-0.5 -21.5q0 -23 6 -43t21 -28h-207l68 312q3 13 3 24q0 20 -9 32t-27 12t-41 -18.5t-32 -57.5l-67 -304h-160l68 312q3 12 3 23q0 20 -9.5 32.5t-27.5 12.5q-8 0 -18.5 -4.5t-21.5 -14t-20 -24t-13 -33.5
l-66 -304h-158l81 370q1 5 1 13q0 21 -16 31.5t-36 12.5l-8 1l225 58l-9 -57q27 23 69 39.5t85 16.5q40 0 69 -12.5t37 -42.5q12 12 31 22t41 17.5t45 11.5t43 4t39 -4t34 -14.5t24.5 -27.5t9.5 -44z" />
    <glyph glyph-name="n" unicode="n" horiz-adv-x="538" 
d="M496 394q0 -27 -6 -55l-48 -230q-2 -6 -2.5 -16.5t-0.5 -22.5q0 -23 5.5 -44t21.5 -26h-206l68 312q3 12 3 23q0 20 -9.5 32.5t-27.5 12.5q-7 0 -17.5 -4t-21.5 -13t-20.5 -24t-13.5 -36l-66 -303h-158l81 370q1 4 1 12q0 20 -16 31.5t-36 13.5l-8 1l225 58l-9 -58
q33 26 72 41.5t82 15.5q52 0 79.5 -21.5t27.5 -69.5z" />
    <glyph glyph-name="o" unicode="o" horiz-adv-x="523" 
d="M484 286q0 -49 -18.5 -102t-54.5 -96.5t-89.5 -71.5t-123.5 -28q-51 0 -88 17t-61 44.5t-35 63t-11 73.5q0 56 20.5 109.5t57.5 95t89.5 66.5t116.5 25q52 0 89 -16.5t61 -43.5t35.5 -62.5t11.5 -73.5zM321 297q0 13 -2.5 27.5t-7.5 26.5t-14.5 19.5t-22.5 7.5
q-26 0 -46.5 -23t-35 -56t-22.5 -68.5t-8 -60.5q0 -14 2.5 -28t8 -25t14.5 -18.5t23 -7.5q27 0 47.5 23t34.5 55.5t21.5 67.5t7.5 60z" />
    <glyph glyph-name="p" unicode="p" horiz-adv-x="544" 
d="M506 316q0 -54 -18 -111.5t-54 -105.5t-90 -79t-126 -31q-20 0 -34 4.5t-24 12.5q-3 -12 -9.5 -43t-14.5 -63q-9 -38 -19 -81h-159l114 530q2 8 3 15.5t1 13.5q0 23 -14 33t-42 15l-6 1l223 58l-5 -61q26 25 66 43.5t82 18.5q31 0 55 -13.5t39.5 -36.5t23.5 -54t8 -66z
M335 298q0 32 -9.5 50t-29.5 18q-14 0 -34.5 -16t-37.5 -42q-6 -9 -12.5 -32t-12 -50.5t-9 -53t-3.5 -38.5q0 -44 37 -44q26 0 46.5 22t35 54t22 68t7.5 64z" />
    <glyph glyph-name="q" unicode="q" horiz-adv-x="545" 
d="M514 485q-8 -35 -17.5 -78t-19 -89.5t-20 -93.5t-19.5 -91q-22 -103 -46 -211q-3 -14 -5 -28t-2 -26q0 -23 6.5 -34.5t15.5 -14.5h-197l49 224q-35 -31 -67.5 -44.5t-60.5 -13.5q-59 0 -92 42t-33 113q0 52 17 111.5t53.5 110.5t93.5 84.5t138 33.5q22 0 39.5 -3.5
t33.5 -5.5q19 -3 33.5 -5t28.5 -2q17 0 33.5 4.5t37.5 16.5zM323 348q0 21 -11 26.5t-31 5.5q-23 0 -42 -20.5t-32.5 -51.5t-21 -67.5t-7.5 -67.5q0 -29 6.5 -48.5t27.5 -19.5q17 0 35.5 13.5t33.5 36.5q4 6 11 31.5t14 56t12 60.5t5 45z" />
    <glyph glyph-name="r" unicode="r" horiz-adv-x="438" 
d="M440 402q0 -22 -10 -43t-29 -37t-45.5 -26.5t-60.5 -11.5q7 6 11 19t4 27t-5 25.5t-18 11.5q-26 0 -46 -30.5t-36 -103.5l-50 -233h-158l82 370q1 3 1 10q0 23 -19 33.5t-39 13.5l-7 1l239 58l-13 -67q24 31 57.5 48t65.5 17t54 -19.5t22 -62.5z" />
    <glyph glyph-name="s" unicode="s" horiz-adv-x="420" 
d="M400 393q0 -17 -8 -30.5t-20 -24.5t-27 -19.5t-28 -14.5l2 12q0 32 -22.5 49.5t-52.5 17.5q-8 0 -18 -1.5t-19 -6t-15 -11.5t-6 -17q0 -14 13 -26t32.5 -25t42.5 -28.5t42.5 -34t32.5 -42.5t13 -54q0 -42 -21 -71t-53 -47t-70.5 -26t-73.5 -8q-43 0 -86 8t-81 31l44 178
q4 -23 13.5 -44t24.5 -36.5t35 -25t45 -9.5q8 0 18.5 1.5t19.5 5.5t15.5 11t6.5 17q0 13 -12 25t-29.5 24t-38.5 25.5t-38.5 31.5t-29.5 41t-12 53q0 42 19 73t49.5 51t68.5 29.5t75 9.5q22 0 48 -4t48.5 -14.5t37.5 -28.5t15 -45z" />
    <glyph glyph-name="t" unicode="t" horiz-adv-x="380" 
d="M370 369h-130l-36 -161q-5 -21 -8.5 -41t-3.5 -37q0 -29 14.5 -39.5t43.5 -10.5q23 0 48 8.5t45 18.5q-15 -36 -37.5 -60t-49 -38t-55.5 -19.5t-56 -5.5q-57 0 -90.5 26t-33.5 78q0 19 6 43l55 238h-81l290 245l-31 -150h129z" />
    <glyph glyph-name="u" unicode="u" horiz-adv-x="556" 
d="M440 101q-3 -11 -3 -19q0 -31 50 -38l7 -1l-225 -58l12 58q-28 -26 -69 -41.5t-84 -15.5q-52 0 -80 21t-28 70q0 14 2 27.5t5 27.5l38 189q4 20 6 34.5t2 25.5q0 26 -11 34t-33 12l-6 1l237 58l-71 -327q-3 -15 -3 -27q0 -41 35 -41q20 0 42.5 21t30.5 56l36 153
q10 41 10 64q0 24 -13.5 31t-33.5 11l-5 1l236 58z" />
    <glyph glyph-name="v" unicode="v" horiz-adv-x="524" 
d="M226 -4h-115l-46 370q-4 28 -17.5 44t-44.5 18l-12 1l222 56l33 -286l96 149q17 25 23 43t6 31q0 12 -4.5 20t-10.5 12.5t-12 6.5l-9 3h217z" />
    <glyph glyph-name="w" unicode="w" horiz-adv-x="785" 
d="M495 -4h-116l-21 239l-145 -239h-116l-33 380q-2 23 -16.5 36.5t-44.5 15.5l-12 1l222 56l21 -270l139 249h114l30 -255l85 137q16 26 22 44t6 31q0 12 -4 20t-9.5 13t-11 7t-8.5 3h213z" />
    <glyph glyph-name="x" unicode="x" horiz-adv-x="559" 
d="M347 248q10 -17 23 -45.5t24 -55.5q13 -33 27 -67q11 -24 30 -34t50 -12l13 -1l-222 -57l-68 153l-63 -62q-11 -11 -19 -23t-8 -22t7 -15.5t12 -6.5h-203l231 225l-65 145q-14 32 -33 43.5t-50 13.5l-14 1l223 57q4 -7 12 -26.5t17.5 -42t18 -43t14.5 -29.5l52 51
q11 11 19 24t8 24q0 9 -7.5 14.5t-12.5 7.5h208z" />
    <glyph glyph-name="y" unicode="y" horiz-adv-x="509" 
d="M524 464q-15 -50 -36.5 -104t-52.5 -113q-18 -34 -42 -74t-52.5 -81.5t-61 -83t-66.5 -78.5q-48 -51 -101.5 -83.5t-101.5 -32.5t-70 22t-22 55q0 28 11 56q11 -10 27.5 -16t36.5 -6q38 0 77.5 19t73.5 56l-83 376q-5 23 -20 36.5t-46 15.5l-12 1l221 55l67 -331
q16 25 38 64.5t36 78.5q10 27 15.5 51t5.5 44q0 26 -12.5 47t-39.5 26h210z" />
    <glyph glyph-name="z" unicode="z" horiz-adv-x="459" 
d="M195 88h78q34 0 55.5 4.5t35.5 12.5t23 20.5t18 27.5l-38 -153h-407l260 384h-110q-29 0 -52.5 -13t-34.5 -38l33 139h399z" />
    <glyph glyph-name="braceleft" unicode="{" horiz-adv-x="386" 
d="M508 700q-79 -3 -119 -38.5t-54 -103.5l-27 -128q-12 -59 -36 -93t-52 -52t-55.5 -23.5t-46.5 -6.5q16 -2 37.5 -6t41 -16t32.5 -34.5t13 -61.5q0 -13 -2 -26.5t-5 -30.5l-26 -129q-2 -13 -4 -23.5t-2 -21.5q0 -45 28.5 -67.5t91.5 -28.5q-58 0 -107 2.5t-84.5 13
t-55.5 31t-20 56.5q0 8 1 16.5t3 17.5l28 135q11 52 11 82q0 27 -7.5 44.5t-21.5 27t-34 13.5t-44 6q33 2 59.5 9t46.5 25t35.5 51t26.5 87l28 136q10 48 37 75.5t68.5 41t96 17t118.5 3.5z" />
    <glyph glyph-name="bar" unicode="|" horiz-adv-x="272" 
d="M-25 -220l212 1000h127l-213 -1000h-126z" />
    <glyph glyph-name="braceright" unicode="}" horiz-adv-x="386" 
d="M379 255q-33 -2 -59.5 -9t-46.5 -25.5t-35.5 -51.5t-26.5 -87l-28 -135q-10 -48 -37.5 -75.5t-68.5 -41t-95.5 -17t-118.5 -3.5q78 5 118.5 38.5t54.5 102.5l27 129q12 59 36 93t51.5 52t55 23t47.5 7q-17 1 -38.5 5t-40.5 16t-32 35t-13 62q0 12 1 26.5t5 30.5l27 128
q6 25 6 45q0 45 -28.5 68.5t-91.5 28.5q58 0 107 -3t84.5 -13.5t55.5 -31t20 -56.5q0 -17 -4 -33l-28 -136q-11 -52 -11 -81q0 -27 7.5 -44.5t21.5 -27t33.5 -14t44.5 -5.5z" />
    <glyph glyph-name="asciitilde" unicode="~" horiz-adv-x="695" 
d="M672 406q-10 -49 -27 -90.5t-42 -72t-59 -47.5t-79 -17q-47 0 -82.5 18.5t-64 41t-53 41t-48.5 18.5q-12 0 -22.5 -4.5t-20 -16t-18 -31.5t-16.5 -51h-118q16 66 42.5 109t58 68.5t64 35.5t61.5 10q43 0 77.5 -17.5t62.5 -39.5t51 -40t43 -18q24 0 41.5 22t31.5 81h117z
" />
    <glyph glyph-name="uni00A0" unicode="&#xa0;" horiz-adv-x="291" 
 />
    <glyph glyph-name="exclamdown" unicode="&#xa1;" horiz-adv-x="304" 
d="M184 171q0 -22 -3 -49l-21 -170q-2 -18 -3 -32.5t-1 -25.5q0 -23 3 -37t7 -22t8.5 -10.5t6.5 -3.5h-261q3 1 10.5 5.5t18 18.5t22.5 39.5t24 67.5l50 170q13 44 30.5 76.5t34.5 55.5q19 26 40 45q9 -14 17 -32q6 -16 11.5 -40t5.5 -56zM251 435q0 -36 -25 -60.5
t-61 -24.5q-32 0 -50.5 19.5t-18.5 51.5q0 36 25 60.5t61 24.5q32 0 50.5 -19.5t18.5 -51.5z" />
    <glyph glyph-name="cent" unicode="&#xa2;" 
d="M480 487q0 -24 -10.5 -48.5t-28.5 -44t-42.5 -32t-52.5 -12.5q6 7 10 21.5t4 31.5q0 25 -9.5 47t-32.5 22q-18 0 -35 -13.5t-30.5 -37t-21.5 -54.5t-8 -66q0 -53 24.5 -85.5t72.5 -32.5q31 0 65.5 15t64.5 43q-21 -61 -62.5 -99t-90.5 -54l-22 -105h-108l21 98
q-63 13 -96 58t-33 111q0 57 17 108.5t47.5 93t72.5 71.5t92 44l22 104h108l-19 -97q37 -7 59 -30t22 -57z" />
    <glyph glyph-name="sterling" unicode="&#xa3;" 
d="M486 507q-2 32 -26.5 49.5t-59.5 17.5q-26 0 -44 -13t-30.5 -36.5t-22 -57t-17.5 -73.5h120l-22 -104h-120q-5 -23 -11.5 -46t-14 -45t-16.5 -40t-20 -30q6 0 18 -0.5t17 -1.5q17 -2 33.5 -4t36.5 -2q24 0 42.5 2.5t35 8.5t32.5 16t34 25l6 -139q-19 -23 -52 -36t-78 -13
q-27 0 -54 4.5t-54.5 10.5t-55 10.5t-54.5 4.5q-19 0 -38.5 -2.5t-38.5 -7t-35 -11t-28 -13.5l-11 124q25 0 45 7t36.5 26.5t31 55.5t28.5 96h-57l22 104h58q15 65 37 118.5t55 91t79.5 58t112.5 20.5q46 0 85 -9t64 -29z" />
    <glyph glyph-name="currency" unicode="&#xa4;" horiz-adv-x="583" 
d="M426 127l-73 72q-28 -11 -62 -11t-62 11l-72 -72l-72 72l70 69q-15 30 -15 65t15 65l-70 71l72 71l74 -74q28 11 60 11q34 0 62 -11l73 74l72 -71l-70 -71q14 -28 14 -65q0 -17 -3 -33.5t-11 -31.5l70 -69zM361 332q0 27 -17.5 49t-52.5 22t-51.5 -22t-16.5 -49
t16.5 -49.5t51.5 -22.5t52.5 22.5t17.5 49.5z" />
    <glyph glyph-name="yen" unicode="&#xa5;" horiz-adv-x="561" 
d="M416 642q0 11 -4.5 16.5t-9.5 7.5h217q-3 -1 -12.5 -5.5t-24.5 -18t-35.5 -38t-45.5 -64.5l-59 -93h97l-17 -84h-132l-43 -68h161l-18 -85h-171l-18 -88q-7 -32 -7 -56q0 -20 4 -33t10 -20t12 -10t9 -3h-280q4 1 14.5 5.5t22.5 17t23.5 36.5t19.5 63l18 88h-173l17 85
h162l-14 68h-134l17 84h101l-19 94q-8 40 -19.5 64.5t-22 37.5t-19.5 17.5t-12 5.5h280q-3 -1 -9 -4.5t-12 -12.5t-10.5 -24.5t-4.5 -40.5q0 -8 1 -16.5t3 -18.5l22 -133l64 111q18 31 34.5 63t16.5 52z" />
    <glyph glyph-name="brokenbar" unicode="&#xa6;" horiz-adv-x="249" 
d="M76 325l75 350h127l-75 -350h-127zM-29 -175l74 350h127l-75 -350h-126z" />
    <glyph glyph-name="section" unicode="&#xa7;" horiz-adv-x="615" 
d="M473 501q-17 35 -48 51.5t-62 16.5q-12 0 -25 -3.5t-24 -10t-18 -17t-7 -23.5q0 -17 13 -28.5t34 -22.5q18 -9 39 -18t43.5 -19.5t44.5 -22.5t40 -27q23 -19 39 -42t16 -55q0 -45 -25.5 -81.5t-81.5 -65.5q20 -17 30.5 -42.5t10.5 -55.5q0 -42 -20 -78.5t-55 -63.5
t-83.5 -42t-106.5 -15q-78 0 -145.5 26.5t-109.5 77.5l121 101q21 -42 61 -65.5t82 -23.5q13 0 27 3.5t25.5 10t19 17.5t7.5 26q0 24 -21 39t-51 29q-33 15 -70 31.5t-67 41.5q-19 16 -37 38.5t-18 55.5q0 45 26 78t94 64q-26 17 -40 43t-14 57q0 43 21.5 78.5t58.5 61
t86 40t104 14.5q32 0 64 -4.5t59.5 -14.5t48.5 -24.5t32 -34.5zM397 250q0 15 -9.5 27.5t-26 22.5t-37.5 18.5t-44 17.5q-10 -2 -21 -8t-20.5 -14t-15.5 -18.5t-6 -21.5q0 -15 10.5 -26.5t27.5 -21t40 -18.5t47 -18q21 4 38 21t17 39z" />
    <glyph glyph-name="dieresis" unicode="&#xa8;" horiz-adv-x="506" 
d="M469 614q0 -33 -23 -55.5t-56 -22.5q-29 0 -46.5 18t-17.5 47q0 34 23.5 56.5t56.5 22.5q29 0 46 -18.5t17 -47.5zM259 614q0 -33 -23 -55.5t-56 -22.5q-29 0 -46.5 18t-17.5 47q0 34 23.5 56.5t56.5 22.5q29 0 46 -18.5t17 -47.5z" />
    <glyph glyph-name="copyright" unicode="&#xa9;" horiz-adv-x="732" 
d="M703 333q0 -86 -29 -150.5t-76.5 -107.5t-108.5 -64.5t-124 -21.5q-64 0 -125 21.5t-109 64.5t-77.5 107.5t-29.5 150.5t29.5 150.5t77.5 107.5t109 64.5t125 21.5q63 0 124 -21.5t108.5 -64.5t76.5 -107.5t29 -150.5zM646 333q0 73 -24 128t-63.5 92t-90 55t-103.5 18
t-104 -18.5t-90.5 -55t-64 -91t-24.5 -127.5t24.5 -128t64 -92t90.5 -55.5t104 -18.5t103.5 18t90 55t63.5 91.5t24 128.5zM496 162q-18 -23 -52.5 -39.5t-70.5 -16.5q-49 0 -85 18t-60 48.5t-35.5 69.5t-11.5 81q0 50 14.5 93t41 75t62.5 50t80 18q33 0 60.5 -10t50.5 -24
v-159q-16 55 -44.5 81.5t-60.5 26.5q-41 0 -67.5 -37.5t-26.5 -96.5q0 -61 27 -101t71 -40q31 0 59 15.5t48 47.5v-100z" />
    <glyph glyph-name="ordfeminine" unicode="&#xaa;" horiz-adv-x="382" 
d="M332 448q-2 -10 -4.5 -23t-2.5 -23q0 -17 10 -26.5t27 -12.5l5 -1l-163 -40l5 44q-24 -23 -53 -33.5t-55 -10.5q-22 0 -38.5 9.5t-27.5 26t-16.5 38t-5.5 46.5q0 48 17 90t46.5 73.5t68.5 50t84 18.5q10 0 22 -0.5t25 -2.5t22 -4t18 -2q31 0 67 17zM242 584q0 26 -20 26
q-12 0 -27 -10.5t-29 -31t-23.5 -49.5t-9.5 -66q0 -19 6 -34t23 -15q13 0 28 15.5t24 38.5q3 8 7.5 25.5t9 37t8 37t3.5 26.5z" />
    <glyph glyph-name="guillemotleft" unicode="&#xab;" horiz-adv-x="497" 
d="M345 252l86 -181h-119l-93 181l162 182h134zM127 252l95 -181h-120l-102 181l156 182h133z" />
    <glyph glyph-name="logicalnot" unicode="&#xac;" horiz-adv-x="705" 
d="M492 140l36 168h-446l23 106h553l-59 -274h-107z" />
    <glyph glyph-name="uni00AD" unicode="&#xad;" horiz-adv-x="330" 
d="M27 203l23 111h255l-23 -111h-255z" />
    <glyph glyph-name="registered" unicode="&#xae;" horiz-adv-x="727" 
d="M702 333q0 -86 -29 -150.5t-76.5 -107.5t-108.5 -64.5t-124 -21.5q-64 0 -125 21.5t-109 64.5t-77.5 107.5t-29.5 150.5t29.5 150.5t77.5 107.5t109 64.5t125 21.5q63 0 124 -21.5t108.5 -64.5t76.5 -107.5t29 -150.5zM644 333q0 73 -24 128t-63 92t-89.5 55t-103.5 18
t-104 -18.5t-91 -55t-64.5 -91t-24.5 -127.5t24.5 -128t64.5 -92t91 -55.5t104 -18.5t103.5 18t89.5 55t63 91.5t24 128.5zM495 171q11 -31 24 -41t18 -11h-124l-44 127q-7 20 -15 27.5t-16 7.5h-5v-82q0 -25 3 -40.5t7.5 -24t9 -11.5t7.5 -4h-146q2 0 6.5 3.5t9 12t8 24
t3.5 40.5v275q0 26 -4.5 41.5t-10 24.5t-11 12.5t-7.5 4.5h170q36 0 62.5 -11.5t43.5 -30.5t25 -43t8 -48q0 -21 -5.5 -41.5t-16 -37t-26 -28t-35.5 -14.5q7 -5 15 -15.5t14 -27.5zM423 419q0 28 -15.5 47.5t-42.5 19.5h-32v-136h32q24 0 41 18t17 51z" />
    <glyph glyph-name="macron" unicode="&#xaf;" horiz-adv-x="506" 
d="M116 565l15 70h337l-15 -70h-337z" />
    <glyph glyph-name="degree" unicode="&#xb0;" horiz-adv-x="356" 
d="M337 537q0 -27 -9.5 -53t-28 -46t-47 -32.5t-66.5 -12.5t-66.5 12.5t-47 32.5t-28 46t-9.5 53t9.5 53t28 46t47 32.5t66.5 12.5t66.5 -12.5t47 -32.5t28 -46t9.5 -53zM256 537q0 27 -17.5 49t-52.5 22t-52 -22t-17 -49t17 -49.5t52 -22.5t52.5 22.5t17.5 49.5z" />
    <glyph glyph-name="plusminus" unicode="&#xb1;" horiz-adv-x="705" 
d="M413 342l-36 -172h-108l36 172h-211l23 105h211l36 172h108l-36 -172h210l-23 -105h-210zM22 0l22 106h529l-22 -106h-529z" />
    <glyph glyph-name="uni00B2" unicode="&#xb2;" horiz-adv-x="340" 
d="M403 580q0 -28 -18.5 -57.5t-44.5 -57.5t-55.5 -52t-51.5 -41l-8 -6h68q19 0 33 4.5t24 10.5t15 11.5t6 7.5q0 -3 -3 -15t-6 -28t-6.5 -33t-5.5 -29h-313l119 111q22 21 46.5 43.5t44.5 44.5t33.5 43t13.5 39q0 20 -14.5 33.5t-35.5 13.5q-27 0 -40 -15t-13 -32
q0 -12 6.5 -21.5t19.5 -11.5l-69 -66q-32 12 -44 36t-12 49q0 22 11 44.5t32.5 41t52 30t69.5 11.5q69 0 107.5 -27.5t38.5 -81.5zM371 400l1 1z" />
    <glyph glyph-name="uni00B3" unicode="&#xb3;" horiz-adv-x="351" 
d="M413 597q0 -21 -8.5 -40t-23.5 -33.5t-35 -23.5t-42 -12h2q39 -14 57 -37.5t18 -46.5q0 -31 -17.5 -53t-44 -36.5t-58 -21t-58.5 -6.5q-65 0 -103.5 24.5t-44.5 59.5l108 57q0 -10 3.5 -22.5t11 -23.5t18.5 -18.5t25 -7.5q20 0 32.5 11t12.5 27q0 23 -28.5 45t-82.5 26
l30 60q8 -2 23 -4t23 -2q24 0 45.5 16.5t21.5 48.5q0 22 -14.5 32t-34.5 10q-8 0 -17 -3.5t-15.5 -10t-8.5 -15.5t5 -20l-100 -36q-6 11 -9.5 22t-1.5 27q3 27 19.5 46t41 31.5t54 18t58.5 5.5q26 0 51 -5.5t44.5 -17t31 -29t11.5 -42.5z" />
    <glyph glyph-name="acute" unicode="&#xb4;" horiz-adv-x="506" 
d="M236 501l73 165h194z" />
    <glyph glyph-name="mu" unicode="&#xb5;" horiz-adv-x="556" 
d="M448 101q-3 -11 -3 -19q0 -32 50 -38l8 -1l-225 -58l12 58q-21 -20 -51.5 -33.5t-62.5 -19.5l-13 -2q-4 -15 -9.5 -43t-11.5 -57q-7 -33 -15 -71h-158l105 504q4 20 6 34.5t2 25.5q0 26 -11.5 33.5t-33.5 12.5l-5 1l237 58l-71 -327q-2 -8 -3 -14.5t-1 -12.5
q0 -41 35 -41q20 0 43 21t31 56l35 153q5 22 8 37.5t3 26.5q0 24 -14 31t-34 11l-5 1l237 58z" />
    <glyph glyph-name="paragraph" unicode="&#xb6;" horiz-adv-x="742" 
d="M694 670q-8 -16 -17 -39q-8 -20 -16.5 -49.5t-16.5 -70.5l-137 -691h-96l152 767h-89l-153 -767h-96l61 306h-18q-65 0 -112.5 18.5t-79 49.5t-47 71.5t-15.5 85.5q0 56 24 113t70.5 102.5t115 74.5t157.5 29h313z" />
    <glyph glyph-name="periodcentered" unicode="&#xb7;" horiz-adv-x="261" 
d="M206 239q0 -45 -30.5 -74t-74.5 -29q-38 0 -61 24t-23 62q0 45 29.5 74.5t74.5 29.5q39 0 62 -24.5t23 -62.5z" />
    <glyph glyph-name="cedilla" unicode="&#xb8;" horiz-adv-x="506" 
d="M352 -106q-3 -15 -13.5 -29t-26.5 -25t-37.5 -18t-48.5 -7q-25 0 -49 6.5t-42 19.5q13 -3 30 -3q38 0 60.5 13.5t26.5 30.5t-13.5 30.5t-59.5 14.5l69 82h78l-41 -45q40 -5 56 -25.5t11 -44.5z" />
    <glyph glyph-name="uni00B9" unicode="&#xb9;" horiz-adv-x="269" 
d="M270 379q-2 -11 -3.5 -20t-1.5 -17q0 -23 3 -34t8 -13h-139l53 244l-118 -106l26 122q23 21 48 43q20 19 44 41t44 42h99z" />
    <glyph glyph-name="ordmasculine" unicode="&#xba;" horiz-adv-x="389" 
d="M368 536q0 -36 -13.5 -73.5t-39.5 -69t-64.5 -51.5t-88.5 -20q-37 0 -63.5 12t-43.5 32t-25 45.5t-8 52.5q0 40 14.5 78.5t41.5 68.5t64.5 48.5t83.5 18.5q37 0 64 -12t44.5 -32t25.5 -45.5t8 -52.5zM250 544q0 10 -1.5 20.5t-5.5 19t-10 14t-16 5.5q-18 0 -33 -17
t-25.5 -40.5t-16.5 -49t-6 -43.5q0 -20 7 -38.5t27 -18.5q19 0 34 16.5t25 39.5t15.5 48.5t5.5 43.5z" />
    <glyph glyph-name="guillemotright" unicode="&#xbb;" horiz-adv-x="497" 
d="M325 71h-133l161 181l-94 182h120l102 -182zM100 71h-134l170 181l-86 182h119l92 -182z" />
    <glyph glyph-name="onequarter" unicode="&#xbc;" horiz-adv-x="750" 
d="M670 146h48l-15 -67h-48l-3 -16q-4 -17 -3.5 -28.5t2 -18.5t4 -10.5t3.5 -4.5h-130l18 78h-192l7 31l206 278h153zM254 0h-100l388 681h97zM277 379q-2 -11 -3.5 -20t-1.5 -17q0 -23 3 -34t8 -13h-139l53 244l-118 -106l26 122q23 21 48 43q20 19 44 41t44 42h99z
M561 146l37 167l-122 -167h85z" />
    <glyph glyph-name="onehalf" unicode="&#xbd;" horiz-adv-x="800" 
d="M746 285q0 -28 -18.5 -57.5t-44.5 -57.5t-55.5 -52t-51.5 -41l-8 -6h68q21 0 35.5 5t24 11t14 11.5t5.5 7.5q0 -3 -3 -15t-6.5 -28t-7 -33t-5.5 -30h-313l119 111q22 21 46.5 43.5t44.5 44.5t33.5 43t13.5 39q0 23 -16 34.5t-36 11.5t-35.5 -11.5t-15.5 -34.5
q0 -12 6.5 -21.5t19.5 -11.5l-69 -66q-32 12 -44 36t-12 49q0 22 11 44.5t32.5 41t52 30t69.5 11.5q69 0 107.5 -27.5t38.5 -81.5zM254 0h-100l388 681h97zM277 379q-2 -11 -3.5 -20t-1.5 -17q0 -23 3 -34t8 -13h-139l53 244l-118 -106l26 122q23 21 48 43q20 19 44 41
t44 42h99z" />
    <glyph glyph-name="threequarters" unicode="&#xbe;" horiz-adv-x="928" 
d="M786 146h48l-15 -67h-48l-3 -16q-4 -17 -3.5 -28.5t2 -18.5t4 -10.5t3.5 -4.5h-130l18 78h-192l7 31l206 278h153zM429 597q0 -21 -8.5 -40t-23.5 -33.5t-35 -23.5t-42 -12h2q39 -14 57 -37.5t18 -46.5q0 -31 -17.5 -53t-44 -36.5t-58 -21t-58.5 -6.5q-65 0 -103.5 24.5
t-44.5 59.5l108 57q0 -10 3.5 -22.5t11 -23.5t18.5 -18.5t25 -7.5q20 0 32.5 11t12.5 27q0 23 -28.5 45t-82.5 26l30 60q8 -2 23 -4t23 -2q24 0 45.5 16.5t21.5 48.5q0 22 -14.5 32t-34.5 10q-8 0 -17 -3.5t-15.5 -10t-8.5 -15.5t5 -20l-100 -36q-6 11 -9.5 22t-1.5 27
q3 27 19.5 46t41 31.5t54 18t58.5 5.5q26 0 51 -5.5t44.5 -17t31 -29t11.5 -42.5zM370 0h-100l388 681h97zM677 146l37 167l-122 -167h85z" />
    <glyph glyph-name="questiondown" unicode="&#xbf;" horiz-adv-x="461" 
d="M352 435q0 -36 -25 -60.5t-61 -24.5q-32 0 -50.5 19.5t-18.5 51.5q0 36 25 60.5t61 24.5q32 0 50.5 -19.5t18.5 -51.5zM306 -148q-36 -17 -88.5 -28t-105.5 -11q-41 0 -75.5 7.5t-59.5 24t-39 41t-14 59.5q0 43 19.5 75.5t49 58.5t64 47.5t64 42.5t49 43t19.5 50
q0 14 -8.5 19t-20.5 7q17 16 37 21.5t38 5.5t35 -4.5t30.5 -13.5t22 -23.5t8.5 -34.5q0 -37 -16.5 -64.5t-42 -49.5t-54.5 -39.5t-54.5 -35t-42 -36t-16.5 -40.5q0 -20 16.5 -31.5t43.5 -11.5q21 0 45.5 8t48.5 22.5t46 33.5t39 42z" />
    <glyph glyph-name="Agrave" unicode="&#xc0;" horiz-adv-x="723" 
d="M612 103q3 -32 10 -51.5t15 -31t15 -15.5t10 -5h-261q3 0 9 3t12 11t11 22.5t5 38.5v7.5t-1 7.5l-6 47h-233l-19 -35q-14 -26 -21 -42.5t-7 -27.5q0 -19 9.5 -25t14.5 -7h-242q3 1 11 5t21 16t31.5 34t41.5 58l357 553h156zM401 462l-135 -219h154zM320 860h194l7 -165z
" />
    <glyph glyph-name="Aacute" unicode="&#xc1;" horiz-adv-x="723" 
d="M612 103q3 -32 10 -51.5t15 -31t15 -15.5t10 -5h-261q3 0 9 3t12 11t11 22.5t5 38.5v7.5t-1 7.5l-6 47h-233l-19 -35q-14 -26 -21 -42.5t-7 -27.5q0 -19 9.5 -25t14.5 -7h-242q3 1 11 5t21 16t31.5 34t41.5 58l357 553h156zM401 462l-135 -219h154zM437 695l73 165h194z
" />
    <glyph glyph-name="Acircumflex" unicode="&#xc2;" horiz-adv-x="723" 
d="M612 103q3 -32 10 -51.5t15 -31t15 -15.5t10 -5h-261q3 0 9 3t12 11t11 22.5t5 38.5v7.5t-1 7.5l-6 47h-233l-19 -35q-14 -26 -21 -42.5t-7 -27.5q0 -19 9.5 -25t14.5 -7h-242q3 1 11 5t21 16t31.5 34t41.5 58l357 553h156zM511 900l129 -205l-158 69l-183 -69zM401 462
l-135 -219h154z" />
    <glyph glyph-name="Atilde" unicode="&#xc3;" horiz-adv-x="723" 
d="M612 103q3 -32 10 -51.5t15 -31t15 -15.5t10 -5h-261q3 0 9 3t12 11t11 22.5t5 38.5v7.5t-1 7.5l-6 47h-233l-19 -35q-14 -26 -21 -42.5t-7 -27.5q0 -19 9.5 -25t14.5 -7h-242q3 1 11 5t21 16t31.5 34t41.5 58l357 553h156zM649 802q-4 -18 -14 -34t-25 -28.5t-34 -20
t-40 -7.5q-22 0 -41 8.5t-36.5 18.5t-34.5 18.5t-35 8.5q-22 0 -37 -14.5t-23 -52.5q-25 31 -15 72q7 34 36 59t71 25q22 0 43.5 -8t40.5 -18t36.5 -18t32.5 -8q27 0 40 17.5t21 50.5q11 -14 14.5 -32t-0.5 -37zM401 462l-135 -219h154z" />
    <glyph glyph-name="Adieresis" unicode="&#xc4;" horiz-adv-x="723" 
d="M612 103q3 -32 10 -51.5t15 -31t15 -15.5t10 -5h-261q3 0 9 3t12 11t11 22.5t5 38.5v7.5t-1 7.5l-6 47h-233l-19 -35q-14 -26 -21 -42.5t-7 -27.5q0 -19 9.5 -25t14.5 -7h-242q3 1 11 5t21 16t31.5 34t41.5 58l357 553h156zM401 462l-135 -219h154zM667 788
q0 -33 -23 -55.5t-56 -22.5q-29 0 -46.5 18t-17.5 47q0 34 23.5 56.5t56.5 22.5q29 0 46 -18.5t17 -47.5zM457 788q0 -33 -23 -55.5t-56 -22.5q-29 0 -46.5 18t-17.5 47q0 34 23.5 56.5t56.5 22.5q29 0 46 -18.5t17 -47.5z" />
    <glyph glyph-name="Aring" unicode="&#xc5;" horiz-adv-x="723" 
d="M612 103q3 -32 10 -51.5t15 -31t15 -15.5t10 -5h-261q3 0 9 3t12 11t11 22.5t5 38.5v7.5t-1 7.5l-6 47h-233l-19 -35q-14 -26 -21 -42.5t-7 -27.5q0 -19 9.5 -25t14.5 -7h-242q3 1 11 5t21 16t31.5 34t41.5 58l357 553h156zM588 792q0 -26 -9 -45.5t-23.5 -32t-33 -19
t-37.5 -6.5q-20 0 -38.5 6.5t-32.5 19.5t-23 32t-9 45q0 25 9 44t23 31.5t32.5 19t38.5 6.5q19 0 37.5 -6t33 -19t23.5 -32t9 -44zM401 462l-135 -219h154zM534 792q0 27 -15 39.5t-34 12.5q-20 0 -35.5 -13t-15.5 -39t15.5 -40t35.5 -14q19 0 34 13.5t15 40.5z" />
    <glyph glyph-name="AE" unicode="&#xc6;" horiz-adv-x="938" 
d="M334 0q4 1 14.5 4t22.5 12t22 25t15 42l8 54h-192l-23 -35q-29 -48 -29 -69q0 -20 10.5 -26t15.5 -7h-250q1 0 8 4t19.5 16t32 34t45.5 59l333 467q14 20 18.5 34t4.5 24q0 13 -8 19.5t-17 8.5h529l-39 -194q-3 47 -33 65t-78 18h-113l-24 -160h84q28 0 46 4.5t28.5 10.5
t15 12t5.5 9l-38 -183q-1 12 -8.5 19.5t-19 12t-25.5 6.5t-26 2h-78l-26 -177h107q36 0 61.5 5.5t44.5 17.5t32.5 30t25.5 43l-45 -207h-476zM296 243h137l43 268z" />
    <glyph glyph-name="Ccedilla" unicode="&#xc7;" horiz-adv-x="558" 
d="M384 -106q-3 -15 -13.5 -29t-26.5 -25t-37.5 -18t-48.5 -7q-25 0 -49 6.5t-42 19.5q13 -3 30 -3q38 0 60.5 13.5t26.5 30.5t-13.5 30.5t-59.5 14.5l49 58q-54 2 -97.5 22.5t-75 55t-48.5 82t-17 104.5q0 84 32.5 161.5t89.5 137.5t133.5 95.5t164.5 35.5q54 0 92.5 -12
t56.5 -24l-41 -190q-17 58 -50.5 85t-72.5 27q-48 0 -87.5 -30t-68 -75.5t-44 -100.5t-15.5 -104q0 -68 30 -110.5t95 -42.5q41 0 85 20t79 67l-31 -141q-23 -22 -56.5 -36t-72.5 -21l-24 -27q40 -5 56 -25.5t11 -44.5z" />
    <glyph glyph-name="Egrave" unicode="&#xc8;" horiz-adv-x="572" 
d="M548 472q-3 47 -33 65t-78 18h-120l-34 -160h97q28 0 46 4.5t28.5 10.5t15 12t5.5 9l-38 -183q-1 12 -8.5 19.5t-19 12t-25.5 6.5t-26 2h-97l-36 -177h126q33 0 56 3.5t41 13t32.5 25.5t30.5 41l-41 -194h-503q4 1 14 4t21 12t21.5 25t16.5 42l109 504q3 13 3 26
q0 26 -12 38.5t-26 14.5h473zM245 860h194l7 -165z" />
    <glyph glyph-name="Eacute" unicode="&#xc9;" horiz-adv-x="572" 
d="M548 472q-3 47 -33 65t-78 18h-120l-34 -160h97q28 0 46 4.5t28.5 10.5t15 12t5.5 9l-38 -183q-1 12 -8.5 19.5t-19 12t-25.5 6.5t-26 2h-97l-36 -177h126q33 0 56 3.5t41 13t32.5 25.5t30.5 41l-41 -194h-503q4 1 14 4t21 12t21.5 25t16.5 42l109 504q3 13 3 26
q0 26 -12 38.5t-26 14.5h473zM305 695l73 165h194z" />
    <glyph glyph-name="Ecircumflex" unicode="&#xca;" horiz-adv-x="572" 
d="M548 472q-3 47 -33 65t-78 18h-120l-34 -160h97q28 0 46 4.5t28.5 10.5t15 12t5.5 9l-38 -183q-1 12 -8.5 19.5t-19 12t-25.5 6.5t-26 2h-97l-36 -177h126q33 0 56 3.5t41 13t32.5 25.5t30.5 41l-41 -194h-503q4 1 14 4t21 12t21.5 25t16.5 42l109 504q3 13 3 26
q0 26 -12 38.5t-26 14.5h473zM415 900l129 -205l-158 69l-183 -69z" />
    <glyph glyph-name="Edieresis" unicode="&#xcb;" horiz-adv-x="572" 
d="M548 472q-3 47 -33 65t-78 18h-120l-34 -160h97q28 0 46 4.5t28.5 10.5t15 12t5.5 9l-38 -183q-1 12 -8.5 19.5t-19 12t-25.5 6.5t-26 2h-97l-36 -177h126q33 0 56 3.5t41 13t32.5 25.5t30.5 41l-41 -194h-503q4 1 14 4t21 12t21.5 25t16.5 42l109 504q3 13 3 26
q0 26 -12 38.5t-26 14.5h473zM551 788q0 -33 -23 -55.5t-56 -22.5q-29 0 -46.5 18t-17.5 47q0 34 23.5 56.5t56.5 22.5q29 0 46 -18.5t17 -47.5zM341 788q0 -33 -23 -55.5t-56 -22.5q-29 0 -46.5 18t-17.5 47q0 34 23.5 56.5t56.5 22.5q29 0 46 -18.5t17 -47.5z" />
    <glyph glyph-name="Igrave" unicode="&#xcc;" horiz-adv-x="335" 
d="M142 613q0 26 -11 38.5t-24 14.5h275q-4 -1 -13 -4.5t-19 -11.5t-19.5 -22.5t-14.5 -36.5l-110 -515q-3 -14 -3 -25q0 -25 10.5 -37.5t22.5 -13.5h-269q4 0 12 3t17.5 11t18.5 21.5t14 36.5l109 515q2 8 3 14t1 12zM87 860h194l7 -165z" />
    <glyph glyph-name="Iacute" unicode="&#xcd;" horiz-adv-x="335" 
d="M142 613q0 26 -11 38.5t-24 14.5h275q-4 -1 -13 -4.5t-19 -11.5t-19.5 -22.5t-14.5 -36.5l-110 -515q-3 -14 -3 -25q0 -25 10.5 -37.5t22.5 -13.5h-269q4 0 12 3t17.5 11t18.5 21.5t14 36.5l109 515q2 8 3 14t1 12zM204 695l73 165h194z" />
    <glyph glyph-name="Icircumflex" unicode="&#xce;" horiz-adv-x="335" 
d="M142 613q0 26 -11 38.5t-24 14.5h275q-4 -1 -13 -4.5t-19 -11.5t-19.5 -22.5t-14.5 -36.5l-110 -515q-3 -14 -3 -25q0 -25 10.5 -37.5t22.5 -13.5h-269q4 0 12 3t17.5 11t18.5 21.5t14 36.5l109 515q2 8 3 14t1 12zM287 900l129 -205l-158 69l-183 -69z" />
    <glyph glyph-name="Idieresis" unicode="&#xcf;" horiz-adv-x="335" 
d="M142 613q0 26 -11 38.5t-24 14.5h275q-4 -1 -13 -4.5t-19 -11.5t-19.5 -22.5t-14.5 -36.5l-110 -515q-3 -14 -3 -25q0 -25 10.5 -37.5t22.5 -13.5h-269q4 0 12 3t17.5 11t18.5 21.5t14 36.5l109 515q2 8 3 14t1 12zM443 788q0 -33 -23 -55.5t-56 -22.5q-29 0 -46.5 18
t-17.5 47q0 34 23.5 56.5t56.5 22.5q29 0 46 -18.5t17 -47.5zM233 788q0 -33 -23 -55.5t-56 -22.5q-29 0 -46.5 18t-17.5 47q0 34 23.5 56.5t56.5 22.5q29 0 46 -18.5t17 -47.5z" />
    <glyph glyph-name="Eth" unicode="&#xd0;" horiz-adv-x="683" 
d="M665 367q0 -66 -23.5 -132t-71 -118t-119 -84.5t-167.5 -32.5h-317q4 1 12 4t17 12.5t17.5 27t14.5 46.5l40 195h-67l17 88h68l45 211q3 16 3 30q0 15 -4 25t-10 15.5t-11.5 8t-8.5 3.5h285q59 0 110 -18.5t89 -55.5t59.5 -93t21.5 -132zM476 389q0 37 -7.5 68t-22.5 54
t-38.5 36t-55.5 13h-50l-40 -187h115l-17 -88h-116l-37 -179h75q45 0 81 26t61 67.5t38.5 91.5t13.5 98z" />
    <glyph glyph-name="Ntilde" unicode="&#xd1;" horiz-adv-x="692" 
d="M550 613q0 16 -5 26t-12 15.5t-14 8t-10 3.5h231q-3 -1 -11 -4t-16.5 -11t-17 -21.5t-12.5 -35.5l-128 -594h-131q-1 4 -4.5 19t-9.5 36.5t-15.5 46.5t-21.5 48l-135 255l-70 -334q-2 -6 -2 -10.5v-9.5q0 -15 5 -24.5t12 -15.5t14 -8.5t10 -2.5h-240q4 0 13.5 3t19 10.5
t18.5 20.5t14 34l105 488q1 4 2 8.5t1 9.5q0 8 -5.5 22t-14.5 28t-20 26t-23 16h217l193 -367l60 291q3 12 3 23zM603 802q-4 -18 -14 -34t-25 -28.5t-34 -20t-40 -7.5q-22 0 -41 8.5t-36.5 18.5t-34.5 18.5t-35 8.5q-22 0 -37 -14.5t-23 -52.5q-25 31 -15 72q7 34 36 59
t71 25q22 0 43.5 -8t40.5 -18t36.5 -18t32.5 -8q27 0 40 17.5t21 50.5q11 -14 14.5 -32t-0.5 -37z" />
    <glyph glyph-name="Ograve" unicode="&#xd2;" horiz-adv-x="691" 
d="M676 416q0 -80 -29.5 -157.5t-82.5 -138.5t-126 -98t-159 -37q-61 0 -108.5 19.5t-80.5 55t-50.5 85t-17.5 109.5q0 83 30 160.5t83.5 137t125.5 95t156 35.5q63 0 111.5 -20t81.5 -56t49.5 -84.5t16.5 -105.5zM486 428q0 60 -21 98.5t-68 38.5q-41 0 -74.5 -31
t-57.5 -79t-37.5 -106t-13.5 -112q0 -60 20.5 -97.5t65.5 -37.5q42 0 76 31t58.5 78.5t38 105t13.5 111.5zM324 860h194l7 -165z" />
    <glyph glyph-name="Oacute" unicode="&#xd3;" horiz-adv-x="691" 
d="M676 416q0 -80 -29.5 -157.5t-82.5 -138.5t-126 -98t-159 -37q-61 0 -108.5 19.5t-80.5 55t-50.5 85t-17.5 109.5q0 83 30 160.5t83.5 137t125.5 95t156 35.5q63 0 111.5 -20t81.5 -56t49.5 -84.5t16.5 -105.5zM486 428q0 60 -21 98.5t-68 38.5q-41 0 -74.5 -31
t-57.5 -79t-37.5 -106t-13.5 -112q0 -60 20.5 -97.5t65.5 -37.5q42 0 76 31t58.5 78.5t38 105t13.5 111.5zM361 695l73 165h194z" />
    <glyph glyph-name="Ocircumflex" unicode="&#xd4;" horiz-adv-x="691" 
d="M676 416q0 -80 -29.5 -157.5t-82.5 -138.5t-126 -98t-159 -37q-61 0 -108.5 19.5t-80.5 55t-50.5 85t-17.5 109.5q0 83 30 160.5t83.5 137t125.5 95t156 35.5q63 0 111.5 -20t81.5 -56t49.5 -84.5t16.5 -105.5zM486 428q0 60 -21 98.5t-68 38.5q-41 0 -74.5 -31
t-57.5 -79t-37.5 -106t-13.5 -112q0 -60 20.5 -97.5t65.5 -37.5q42 0 76 31t58.5 78.5t38 105t13.5 111.5zM455 900l129 -205l-158 69l-183 -69z" />
    <glyph glyph-name="Otilde" unicode="&#xd5;" horiz-adv-x="691" 
d="M676 416q0 -80 -29.5 -157.5t-82.5 -138.5t-126 -98t-159 -37q-61 0 -108.5 19.5t-80.5 55t-50.5 85t-17.5 109.5q0 83 30 160.5t83.5 137t125.5 95t156 35.5q63 0 111.5 -20t81.5 -56t49.5 -84.5t16.5 -105.5zM486 428q0 60 -21 98.5t-68 38.5q-41 0 -74.5 -31
t-57.5 -79t-37.5 -106t-13.5 -112q0 -60 20.5 -97.5t65.5 -37.5q42 0 76 31t58.5 78.5t38 105t13.5 111.5zM603 802q-4 -18 -14 -34t-25 -28.5t-34 -20t-40 -7.5q-22 0 -41 8.5t-36.5 18.5t-34.5 18.5t-35 8.5q-22 0 -37 -14.5t-23 -52.5q-25 31 -15 72q7 34 36 59t71 25
q22 0 43.5 -8t40.5 -18t36.5 -18t32.5 -8q27 0 40 17.5t21 50.5q11 -14 14.5 -32t-0.5 -37z" />
    <glyph glyph-name="Odieresis" unicode="&#xd6;" horiz-adv-x="691" 
d="M676 416q0 -80 -29.5 -157.5t-82.5 -138.5t-126 -98t-159 -37q-61 0 -108.5 19.5t-80.5 55t-50.5 85t-17.5 109.5q0 83 30 160.5t83.5 137t125.5 95t156 35.5q63 0 111.5 -20t81.5 -56t49.5 -84.5t16.5 -105.5zM486 428q0 60 -21 98.5t-68 38.5q-41 0 -74.5 -31
t-57.5 -79t-37.5 -106t-13.5 -112q0 -60 20.5 -97.5t65.5 -37.5q42 0 76 31t58.5 78.5t38 105t13.5 111.5zM611 788q0 -33 -23 -55.5t-56 -22.5q-29 0 -46.5 18t-17.5 47q0 34 23.5 56.5t56.5 22.5q29 0 46 -18.5t17 -47.5zM401 788q0 -33 -23 -55.5t-56 -22.5
q-29 0 -46.5 18t-17.5 47q0 34 23.5 56.5t56.5 22.5q29 0 46 -18.5t17 -47.5z" />
    <glyph glyph-name="multiply" unicode="&#xd7;" horiz-adv-x="705" 
d="M501 0l-164 210l-255 -210l-59 76l254 209l-165 210l91 75l166 -209l253 209l60 -75l-254 -210l165 -209z" />
    <glyph glyph-name="Oslash" unicode="&#xd8;" horiz-adv-x="686" 
d="M616 588q55 -70 55 -172q0 -80 -29.5 -157.5t-82.5 -138t-126 -98t-159 -37.5q-87 0 -149 42l-63 -73l-79 21l89 103q-55 70 -55 176q0 83 30 160.5t83.5 137t125.5 95t156 35.5q46 0 84 -11.5t68 -32.5l56 65l76 -24zM483 436l-259 -297q22 -43 68 -43q40 0 74 29.5
t59 75t40.5 101t17.5 108.5v26zM465 526q-11 21 -28 33t-42 12q-39 0 -72 -29.5t-58 -76t-40 -102.5t-18 -108q0 -7 -0.5 -13t-0.5 -12z" />
    <glyph glyph-name="Ugrave" unicode="&#xd9;" horiz-adv-x="675" 
d="M517 620q0 13 -4 21.5t-9.5 14t-11 7.5t-8.5 3h235q-4 -1 -12 -4t-17.5 -10.5t-17.5 -20t-12 -31.5l-75 -363q-15 -74 -42 -123t-65.5 -77.5t-90 -40t-116.5 -11.5q-135 0 -189.5 69t-24.5 205l76 344q2 5 2 10v9q0 13 -4.5 21t-10.5 13t-12 7t-10 3h274
q-4 -1 -12.5 -3.5t-18 -9.5t-18.5 -19t-13 -31l-80 -366q-17 -74 2.5 -103.5t77.5 -29.5q47 0 80.5 27.5t45.5 84.5l79 381q2 7 2 12.5v10.5zM306 860h194l7 -165z" />
    <glyph glyph-name="Uacute" unicode="&#xda;" horiz-adv-x="675" 
d="M517 620q0 13 -4 21.5t-9.5 14t-11 7.5t-8.5 3h235q-4 -1 -12 -4t-17.5 -10.5t-17.5 -20t-12 -31.5l-75 -363q-15 -74 -42 -123t-65.5 -77.5t-90 -40t-116.5 -11.5q-135 0 -189.5 69t-24.5 205l76 344q2 5 2 10v9q0 13 -4.5 21t-10.5 13t-12 7t-10 3h274
q-4 -1 -12.5 -3.5t-18 -9.5t-18.5 -19t-13 -31l-80 -366q-17 -74 2.5 -103.5t77.5 -29.5q47 0 80.5 27.5t45.5 84.5l79 381q2 7 2 12.5v10.5zM363 695l73 165h194z" />
    <glyph glyph-name="Ucircumflex" unicode="&#xdb;" horiz-adv-x="675" 
d="M517 620q0 13 -4 21.5t-9.5 14t-11 7.5t-8.5 3h235q-4 -1 -12 -4t-17.5 -10.5t-17.5 -20t-12 -31.5l-75 -363q-15 -74 -42 -123t-65.5 -77.5t-90 -40t-116.5 -11.5q-135 0 -189.5 69t-24.5 205l76 344q2 5 2 10v9q0 13 -4.5 21t-10.5 13t-12 7t-10 3h274
q-4 -1 -12.5 -3.5t-18 -9.5t-18.5 -19t-13 -31l-80 -366q-17 -74 2.5 -103.5t77.5 -29.5q47 0 80.5 27.5t45.5 84.5l79 381q2 7 2 12.5v10.5zM475 900l129 -205l-158 69l-183 -69z" />
    <glyph glyph-name="Udieresis" unicode="&#xdc;" horiz-adv-x="675" 
d="M517 620q0 13 -4 21.5t-9.5 14t-11 7.5t-8.5 3h235q-4 -1 -12 -4t-17.5 -10.5t-17.5 -20t-12 -31.5l-75 -363q-15 -74 -42 -123t-65.5 -77.5t-90 -40t-116.5 -11.5q-135 0 -189.5 69t-24.5 205l76 344q2 5 2 10v9q0 13 -4.5 21t-10.5 13t-12 7t-10 3h274
q-4 -1 -12.5 -3.5t-18 -9.5t-18.5 -19t-13 -31l-80 -366q-17 -74 2.5 -103.5t77.5 -29.5q47 0 80.5 27.5t45.5 84.5l79 381q2 7 2 12.5v10.5zM603 788q0 -33 -23 -55.5t-56 -22.5q-29 0 -46.5 18t-17.5 47q0 34 23.5 56.5t56.5 22.5q29 0 46 -18.5t17 -47.5zM393 788
q0 -33 -23 -55.5t-56 -22.5q-29 0 -46.5 18t-17.5 47q0 34 23.5 56.5t56.5 22.5q29 0 46 -18.5t17 -47.5z" />
    <glyph glyph-name="Yacute" unicode="&#xdd;" horiz-adv-x="617" 
d="M498 644q0 12 -7 16t-11 6h225q-3 -1 -10.5 -4t-18 -10.5t-23.5 -21.5t-29 -36l-244 -338l-40 -180q-3 -15 -3 -26q0 -15 4 -24.5t10 -15t12 -8t9 -2.5h-271q4 0 12.5 3t18 11t19 21.5t14.5 36.5l40 184l-86 338q-6 22 -14.5 35.5t-17.5 21.5t-16.5 11t-10.5 4h252
q-4 -2 -12 -9t-8 -31q0 -7 1.5 -14.5l3.5 -17.5l46 -186l131 183q14 19 19 32t5 21zM375 695l73 165h194z" />
    <glyph glyph-name="Thorn" unicode="&#xde;" horiz-adv-x="613" 
d="M589 364q0 -43 -18 -86t-53 -77.5t-86 -56t-117 -21.5q-22 0 -47.5 3.5t-48.5 9.5l-13 -60q-3 -14 -3 -26q0 -25 10.5 -37t22.5 -13h-269q4 0 12 3t17.5 11t18.5 21.5t14 36.5l109 515q2 8 3 14t1 12q0 26 -11 38.5t-24 14.5h275q-4 -1 -12.5 -4.5t-19 -11.5t-20 -22.5
t-14.5 -36.5l-10 -43h60q57 0 99 -15.5t69.5 -41t41 -58.5t13.5 -69zM417 361q0 35 -18 60.5t-54 25.5h-60l-45 -210q11 -4 24.5 -5.5t24.5 -1.5q32 0 56 12t40 30.5t24 42t8 46.5z" />
    <glyph glyph-name="germandbls" unicode="&#xdf;" horiz-adv-x="658" 
d="M631 571q0 -33 -13 -57.5t-32.5 -44t-42 -34.5t-42 -28.5t-32.5 -26.5t-13 -28q0 -14 11.5 -27t29 -27t37.5 -29t37.5 -33t29 -40t11.5 -49q0 -41 -20.5 -71.5t-53 -51t-72 -31t-78.5 -10.5q-29 0 -54.5 5.5t-45.5 17t-31.5 28t-11.5 39.5q0 32 20 60t54 41l-2 -8t-1 -9
q0 -18 7 -31.5t18.5 -21.5t26 -12t29.5 -4q24 0 43 9.5t19 26.5q0 15 -11 28t-27.5 26t-36 27.5t-36 32t-27.5 39t-11 49.5q0 32 11.5 56t28.5 42t37 32.5t37 28.5t28.5 29.5t11.5 35.5q0 15 -6 25t-15.5 17t-21.5 10t-23 3q-44 0 -76.5 -33.5t-43.5 -87.5l-93 -464
q-12 -59 -32 -97.5t-46.5 -62t-58 -33t-65.5 -9.5q-40 0 -67 16.5t-46 50.5q7 -1 13.5 -1h12.5q30 0 52 10.5t37 29t24 43t15 53.5l92 452q14 68 48.5 112.5t79.5 70.5t94.5 36t93.5 10q40 0 76 -7.5t63.5 -23.5t43.5 -40.5t16 -58.5z" />
    <glyph glyph-name="agrave" unicode="&#xe0;" horiz-adv-x="547" 
d="M446 161q-3 -14 -6.5 -32.5t-3.5 -32.5q0 -24 14 -37.5t37 -16.5l7 -1l-226 -56l7 62q-33 -32 -74 -47t-76 -15q-30 0 -53 13t-38.5 35.5t-23 52.5t-7.5 65q0 67 23.5 126t64.5 103t95.5 69.5t116.5 25.5q14 0 30.5 -1t34.5 -4t31 -5.5t26 -2.5q43 0 91 24zM322 349
q0 37 -29 37q-24 0 -46 -19t-39.5 -50t-28 -71t-10.5 -81q0 -26 8.5 -46t31.5 -20q18 0 39 22t34 54q4 11 11 35t13.5 51t11 51.5t4.5 36.5zM203 666h194l7 -165z" />
    <glyph glyph-name="aacute" unicode="&#xe1;" horiz-adv-x="547" 
d="M446 161q-3 -14 -6.5 -32.5t-3.5 -32.5q0 -24 14 -37.5t37 -16.5l7 -1l-226 -56l7 62q-33 -32 -74 -47t-76 -15q-30 0 -53 13t-38.5 35.5t-23 52.5t-7.5 65q0 67 23.5 126t64.5 103t95.5 69.5t116.5 25.5q14 0 30.5 -1t34.5 -4t31 -5.5t26 -2.5q43 0 91 24zM322 349
q0 37 -29 37q-24 0 -46 -19t-39.5 -50t-28 -71t-10.5 -81q0 -26 8.5 -46t31.5 -20q18 0 39 22t34 54q4 11 11 35t13.5 51t11 51.5t4.5 36.5zM252 501l73 165h194z" />
    <glyph glyph-name="acircumflex" unicode="&#xe2;" horiz-adv-x="547" 
d="M446 161q-3 -14 -6.5 -32.5t-3.5 -32.5q0 -24 14 -37.5t37 -16.5l7 -1l-226 -56l7 62q-33 -32 -74 -47t-76 -15q-30 0 -53 13t-38.5 35.5t-23 52.5t-7.5 65q0 67 23.5 126t64.5 103t95.5 69.5t116.5 25.5q14 0 30.5 -1t34.5 -4t31 -5.5t26 -2.5q43 0 91 24zM322 349
q0 37 -29 37q-24 0 -46 -19t-39.5 -50t-28 -71t-10.5 -81q0 -26 8.5 -46t31.5 -20q18 0 39 22t34 54q4 11 11 35t13.5 51t11 51.5t4.5 36.5zM355 703l109 -202l-137 69l-164 -69z" />
    <glyph glyph-name="atilde" unicode="&#xe3;" horiz-adv-x="547" 
d="M446 161q-3 -14 -6.5 -32.5t-3.5 -32.5q0 -24 14 -37.5t37 -16.5l7 -1l-226 -56l7 62q-33 -32 -74 -47t-76 -15q-30 0 -53 13t-38.5 35.5t-23 52.5t-7.5 65q0 67 23.5 126t64.5 103t95.5 69.5t116.5 25.5q14 0 30.5 -1t34.5 -4t31 -5.5t26 -2.5q43 0 91 24zM322 349
q0 37 -29 37q-24 0 -46 -19t-39.5 -50t-28 -71t-10.5 -81q0 -26 8.5 -46t31.5 -20q18 0 39 22t34 54q4 11 11 35t13.5 51t11 51.5t4.5 36.5zM491 628q-4 -18 -14 -34t-25 -28.5t-34 -20t-40 -7.5q-22 0 -41 8.5t-36.5 18.5t-34.5 18.5t-35 8.5q-22 0 -37 -14.5t-23 -52.5
q-25 31 -15 72q7 34 36 59t71 25q22 0 43.5 -8t40.5 -18t36.5 -18t32.5 -8q27 0 40 17.5t21 50.5q11 -14 14.5 -32t-0.5 -37z" />
    <glyph glyph-name="adieresis" unicode="&#xe4;" horiz-adv-x="547" 
d="M446 161q-3 -14 -6.5 -32.5t-3.5 -32.5q0 -24 14 -37.5t37 -16.5l7 -1l-226 -56l7 62q-33 -32 -74 -47t-76 -15q-30 0 -53 13t-38.5 35.5t-23 52.5t-7.5 65q0 67 23.5 126t64.5 103t95.5 69.5t116.5 25.5q14 0 30.5 -1t34.5 -4t31 -5.5t26 -2.5q43 0 91 24zM322 349
q0 37 -29 37q-24 0 -46 -19t-39.5 -50t-28 -71t-10.5 -81q0 -26 8.5 -46t31.5 -20q18 0 39 22t34 54q4 11 11 35t13.5 51t11 51.5t4.5 36.5zM505 614q0 -33 -23 -55.5t-56 -22.5q-29 0 -46.5 18t-17.5 47q0 34 23.5 56.5t56.5 22.5q29 0 46 -18.5t17 -47.5zM295 614
q0 -33 -23 -55.5t-56 -22.5q-29 0 -46.5 18t-17.5 47q0 34 23.5 56.5t56.5 22.5q29 0 46 -18.5t17 -47.5z" />
    <glyph glyph-name="aring" unicode="&#xe5;" horiz-adv-x="547" 
d="M446 161q-3 -14 -6.5 -32.5t-3.5 -32.5q0 -24 14 -37.5t37 -16.5l7 -1l-226 -56l7 62q-33 -32 -74 -47t-76 -15q-30 0 -53 13t-38.5 35.5t-23 52.5t-7.5 65q0 67 23.5 126t64.5 103t95.5 69.5t116.5 25.5q14 0 30.5 -1t34.5 -4t31 -5.5t26 -2.5q43 0 91 24zM322 349
q0 37 -29 37q-24 0 -46 -19t-39.5 -50t-28 -71t-10.5 -81q0 -26 8.5 -46t31.5 -20q18 0 39 22t34 54q4 11 11 35t13.5 51t11 51.5t4.5 36.5zM416 608q0 -26 -9 -45.5t-23.5 -32t-33 -19t-37.5 -6.5q-20 0 -38.5 6.5t-32.5 19.5t-23 32t-9 45q0 25 9 44t23 31.5t32.5 19
t38.5 6.5q19 0 37.5 -6t33 -19t23.5 -32t9 -44zM362 608q0 27 -15 39.5t-34 12.5q-20 0 -35.5 -13t-15.5 -39t15.5 -40t35.5 -14q19 0 34 13.5t15 40.5z" />
    <glyph glyph-name="ae" unicode="&#xe6;" horiz-adv-x="708" 
d="M705 365q0 -84 -75.5 -121.5t-224.5 -46.5v-9t1 -9q3 -18 9.5 -34t18 -28t29 -19t42.5 -7q38 0 80 16t75 41q-12 -40 -36 -70.5t-54 -51.5t-65 -31.5t-70 -10.5q-48 0 -83.5 15.5t-58.5 44.5q-29 -26 -74.5 -42.5t-108.5 -16.5q-28 0 -52.5 8t-43 23t-29.5 36.5t-11 48.5
q0 42 22.5 71t62 48.5t94 30.5t118.5 15l11 53q3 13 3 25q0 29 -15 40t-34 11q-29 0 -44.5 -14t-15.5 -29q0 -16 13 -23l-161 -36q-1 7 -1.5 13t-0.5 12q0 42 23.5 73.5t58.5 52.5t77 31.5t78 10.5q38 0 72 -7.5t56 -27.5q4 -3 7.5 -6t6.5 -7q35 22 75.5 34t85.5 12
q24 0 49 -6.5t45 -20.5t32.5 -36.5t12.5 -55.5zM567 350q0 19 -10.5 29.5t-27.5 10.5q-23 0 -41.5 -9.5t-33 -25.5t-25 -37t-16.5 -44q38 2 67 5.5t48.5 12t29 22.5t9.5 36zM255 188q-67 -4 -101.5 -17t-34.5 -46q0 -19 14.5 -31.5t36.5 -12.5q23 0 47 15t30 48z" />
    <glyph glyph-name="ccedilla" unicode="&#xe7;" horiz-adv-x="438" 
d="M245 -106q-3 -15 -13.5 -29t-26.5 -25t-37.5 -18t-48.5 -7q-25 0 -49 6.5t-42 19.5q13 -3 30 -3q38 0 60.5 13.5t26.5 30.5t-13.5 30.5t-59.5 14.5l52 62q-59 13 -90.5 57t-31.5 110q0 69 24.5 129t66.5 104t99 69.5t122 25.5q50 0 80 -24.5t30 -65.5q0 -24 -10.5 -48.5
t-29 -44t-43 -32t-52.5 -12.5q6 7 10 21.5t4 31.5q0 25 -9.5 47t-32.5 22q-18 0 -34.5 -13.5t-30 -37t-21.5 -54.5t-8 -66q0 -53 24 -85.5t72 -32.5q31 0 65.5 15t64.5 43q-26 -72 -80.5 -113t-114.5 -49l-20 -22q40 -5 56 -25.5t11 -44.5z" />
    <glyph glyph-name="egrave" unicode="&#xe8;" horiz-adv-x="468" 
d="M455 365q0 -29 -15 -61.5t-49.5 -61t-91 -48.5t-140.5 -24q1 -6 3 -12t4 -11q12 -29 35 -42.5t54 -13.5q38 0 80 16t75 41q-12 -40 -36 -70.5t-54 -51.5t-65 -31.5t-70 -10.5q-86 0 -134 50t-48 134q0 60 23 117t64.5 101t99 71t126.5 27q24 0 49 -6.5t45 -20.5
t32.5 -36.5t12.5 -55.5zM317 350q0 19 -10.5 29.5t-27.5 10.5q-15 0 -33.5 -9.5t-36 -27.5t-31.5 -43.5t-20 -57.5q19 1 46 6.5t52 17.5t43 30t18 44zM173 666h194l7 -165z" />
    <glyph glyph-name="eacute" unicode="&#xe9;" horiz-adv-x="468" 
d="M455 365q0 -29 -15 -61.5t-49.5 -61t-91 -48.5t-140.5 -24q1 -6 3 -12t4 -11q12 -29 35 -42.5t54 -13.5q38 0 80 16t75 41q-12 -40 -36 -70.5t-54 -51.5t-65 -31.5t-70 -10.5q-86 0 -134 50t-48 134q0 60 23 117t64.5 101t99 71t126.5 27q24 0 49 -6.5t45 -20.5
t32.5 -36.5t12.5 -55.5zM317 350q0 19 -10.5 29.5t-27.5 10.5q-15 0 -33.5 -9.5t-36 -27.5t-31.5 -43.5t-20 -57.5q19 1 46 6.5t52 17.5t43 30t18 44zM201 501l73 165h194z" />
    <glyph glyph-name="ecircumflex" unicode="&#xea;" horiz-adv-x="468" 
d="M455 365q0 -29 -15 -61.5t-49.5 -61t-91 -48.5t-140.5 -24q1 -6 3 -12t4 -11q12 -29 35 -42.5t54 -13.5q38 0 80 16t75 41q-12 -40 -36 -70.5t-54 -51.5t-65 -31.5t-70 -10.5q-86 0 -134 50t-48 134q0 60 23 117t64.5 101t99 71t126.5 27q24 0 49 -6.5t45 -20.5
t32.5 -36.5t12.5 -55.5zM317 350q0 19 -10.5 29.5t-27.5 10.5q-15 0 -33.5 -9.5t-36 -27.5t-31.5 -43.5t-20 -57.5q19 1 46 6.5t52 17.5t43 30t18 44zM335 703l109 -202l-137 69l-164 -69z" />
    <glyph glyph-name="edieresis" unicode="&#xeb;" horiz-adv-x="468" 
d="M455 365q0 -29 -15 -61.5t-49.5 -61t-91 -48.5t-140.5 -24q1 -6 3 -12t4 -11q12 -29 35 -42.5t54 -13.5q38 0 80 16t75 41q-12 -40 -36 -70.5t-54 -51.5t-65 -31.5t-70 -10.5q-86 0 -134 50t-48 134q0 60 23 117t64.5 101t99 71t126.5 27q24 0 49 -6.5t45 -20.5
t32.5 -36.5t12.5 -55.5zM317 350q0 19 -10.5 29.5t-27.5 10.5q-15 0 -33.5 -9.5t-36 -27.5t-31.5 -43.5t-20 -57.5q19 1 46 6.5t52 17.5t43 30t18 44zM481 614q0 -33 -23 -55.5t-56 -22.5q-29 0 -46.5 18t-17.5 47q0 34 23.5 56.5t56.5 22.5q29 0 46 -18.5t17 -47.5z
M271 614q0 -33 -23 -55.5t-56 -22.5q-29 0 -46.5 18t-17.5 47q0 34 23.5 56.5t56.5 22.5q29 0 46 -18.5t17 -47.5z" />
    <glyph glyph-name="igrave" unicode="&#xec;" horiz-adv-x="286" 
d="M179 109q-6 -26 -6 -49q0 -29 8.5 -43.5t19.5 -16.5h-206l82 373q1 3 1 9q0 10 -5 17.5t-13 13.5t-17.5 9.5t-17.5 4.5l-8 1l243 58zM83 666h194l7 -165z" />
    <glyph glyph-name="iacute" unicode="&#xed;" horiz-adv-x="286" 
d="M179 109q-6 -26 -6 -49q0 -29 8.5 -43.5t19.5 -16.5h-206l82 373q1 3 1 9q0 10 -5 17.5t-13 13.5t-17.5 9.5t-17.5 4.5l-8 1l243 58zM90 501l73 165h194z" />
    <glyph glyph-name="icircumflex" unicode="&#xee;" horiz-adv-x="286" 
d="M179 109q-6 -26 -6 -49q0 -29 8.5 -43.5t19.5 -16.5h-206l82 373q1 3 1 9q0 10 -5 17.5t-13 13.5t-17.5 9.5t-17.5 4.5l-8 1l243 58zM225 703l109 -202l-137 69l-164 -69z" />
    <glyph glyph-name="idieresis" unicode="&#xef;" horiz-adv-x="286" 
d="M179 109q-6 -26 -6 -49q0 -29 8.5 -43.5t19.5 -16.5h-206l82 373q1 3 1 9q0 10 -5 17.5t-13 13.5t-17.5 9.5t-17.5 4.5l-8 1l243 58zM379 614q0 -33 -23 -55.5t-56 -22.5q-29 0 -46.5 18t-17.5 47q0 34 23.5 56.5t56.5 22.5q29 0 46 -18.5t17 -47.5zM169 614
q0 -33 -23 -55.5t-56 -22.5q-29 0 -46.5 18t-17.5 47q0 34 23.5 56.5t56.5 22.5q29 0 46 -18.5t17 -47.5z" />
    <glyph glyph-name="eth" unicode="&#xf0;" horiz-adv-x="521" 
d="M415 608q37 -48 55.5 -112t18.5 -133t-18 -136t-55 -120t-92.5 -86t-130.5 -33q-51 0 -88 17t-61 44.5t-35 63t-11 73.5q0 60 22.5 114t58.5 94.5t81.5 64t92.5 23.5q57 0 97 -45q-34 73 -84 119l-146 -50v59l93 32q-17 11 -36 20.5t-40 17.5l175 61q17 -9 32 -20t29 -23
l136 50v-62zM316 297q0 13 -2.5 27.5t-7.5 26.5t-14.5 19.5t-22.5 7.5q-26 0 -46.5 -23t-35 -56t-22.5 -68.5t-8 -60.5q0 -14 2.5 -28t8 -25t14.5 -18.5t23 -7.5q27 0 47.5 23t34.5 55.5t21.5 67.5t7.5 60z" />
    <glyph glyph-name="ntilde" unicode="&#xf1;" horiz-adv-x="538" 
d="M496 394q0 -27 -6 -55l-48 -230q-2 -6 -2.5 -16.5t-0.5 -22.5q0 -23 5.5 -44t21.5 -26h-206l68 312q3 12 3 23q0 20 -9.5 32.5t-27.5 12.5q-7 0 -17.5 -4t-21.5 -13t-20.5 -24t-13.5 -36l-66 -303h-158l81 370q1 4 1 12q0 20 -16 31.5t-36 13.5l-8 1l225 58l-9 -58
q33 26 72 41.5t82 15.5q52 0 79.5 -21.5t27.5 -69.5zM487 628q-4 -18 -14 -34t-25 -28.5t-34 -20t-40 -7.5q-22 0 -41 8.5t-36.5 18.5t-34.5 18.5t-35 8.5q-22 0 -37 -14.5t-23 -52.5q-25 31 -15 72q7 34 36 59t71 25q22 0 43.5 -8t40.5 -18t36.5 -18t32.5 -8q27 0 40 17.5
t21 50.5q11 -14 14.5 -32t-0.5 -37z" />
    <glyph glyph-name="ograve" unicode="&#xf2;" horiz-adv-x="523" 
d="M484 286q0 -49 -18.5 -102t-54.5 -96.5t-89.5 -71.5t-123.5 -28q-51 0 -88 17t-61 44.5t-35 63t-11 73.5q0 56 20.5 109.5t57.5 95t89.5 66.5t116.5 25q52 0 89 -16.5t61 -43.5t35.5 -62.5t11.5 -73.5zM321 297q0 13 -2.5 27.5t-7.5 26.5t-14.5 19.5t-22.5 7.5
q-26 0 -46.5 -23t-35 -56t-22.5 -68.5t-8 -60.5q0 -14 2.5 -28t8 -25t14.5 -18.5t23 -7.5q27 0 47.5 23t34.5 55.5t21.5 67.5t7.5 60zM181 666h194l7 -165z" />
    <glyph glyph-name="oacute" unicode="&#xf3;" horiz-adv-x="523" 
d="M484 286q0 -49 -18.5 -102t-54.5 -96.5t-89.5 -71.5t-123.5 -28q-51 0 -88 17t-61 44.5t-35 63t-11 73.5q0 56 20.5 109.5t57.5 95t89.5 66.5t116.5 25q52 0 89 -16.5t61 -43.5t35.5 -62.5t11.5 -73.5zM321 297q0 13 -2.5 27.5t-7.5 26.5t-14.5 19.5t-22.5 7.5
q-26 0 -46.5 -23t-35 -56t-22.5 -68.5t-8 -60.5q0 -14 2.5 -28t8 -25t14.5 -18.5t23 -7.5q27 0 47.5 23t34.5 55.5t21.5 67.5t7.5 60zM248 501l73 165h194z" />
    <glyph glyph-name="ocircumflex" unicode="&#xf4;" horiz-adv-x="523" 
d="M484 286q0 -49 -18.5 -102t-54.5 -96.5t-89.5 -71.5t-123.5 -28q-51 0 -88 17t-61 44.5t-35 63t-11 73.5q0 56 20.5 109.5t57.5 95t89.5 66.5t116.5 25q52 0 89 -16.5t61 -43.5t35.5 -62.5t11.5 -73.5zM321 297q0 13 -2.5 27.5t-7.5 26.5t-14.5 19.5t-22.5 7.5
q-26 0 -46.5 -23t-35 -56t-22.5 -68.5t-8 -60.5q0 -14 2.5 -28t8 -25t14.5 -18.5t23 -7.5q27 0 47.5 23t34.5 55.5t21.5 67.5t7.5 60zM327 703l109 -202l-137 69l-164 -69z" />
    <glyph glyph-name="otilde" unicode="&#xf5;" horiz-adv-x="523" 
d="M484 286q0 -49 -18.5 -102t-54.5 -96.5t-89.5 -71.5t-123.5 -28q-51 0 -88 17t-61 44.5t-35 63t-11 73.5q0 56 20.5 109.5t57.5 95t89.5 66.5t116.5 25q52 0 89 -16.5t61 -43.5t35.5 -62.5t11.5 -73.5zM321 297q0 13 -2.5 27.5t-7.5 26.5t-14.5 19.5t-22.5 7.5
q-26 0 -46.5 -23t-35 -56t-22.5 -68.5t-8 -60.5q0 -14 2.5 -28t8 -25t14.5 -18.5t23 -7.5q27 0 47.5 23t34.5 55.5t21.5 67.5t7.5 60zM489 628q-4 -18 -14 -34t-25 -28.5t-34 -20t-40 -7.5q-22 0 -41 8.5t-36.5 18.5t-34.5 18.5t-35 8.5q-22 0 -37 -14.5t-23 -52.5
q-25 31 -15 72q7 34 36 59t71 25q22 0 43.5 -8t40.5 -18t36.5 -18t32.5 -8q27 0 40 17.5t21 50.5q11 -14 14.5 -32t-0.5 -37z" />
    <glyph glyph-name="odieresis" unicode="&#xf6;" horiz-adv-x="523" 
d="M484 286q0 -49 -18.5 -102t-54.5 -96.5t-89.5 -71.5t-123.5 -28q-51 0 -88 17t-61 44.5t-35 63t-11 73.5q0 56 20.5 109.5t57.5 95t89.5 66.5t116.5 25q52 0 89 -16.5t61 -43.5t35.5 -62.5t11.5 -73.5zM321 297q0 13 -2.5 27.5t-7.5 26.5t-14.5 19.5t-22.5 7.5
q-26 0 -46.5 -23t-35 -56t-22.5 -68.5t-8 -60.5q0 -14 2.5 -28t8 -25t14.5 -18.5t23 -7.5q27 0 47.5 23t34.5 55.5t21.5 67.5t7.5 60zM478 614q0 -33 -23 -55.5t-56 -22.5q-29 0 -46.5 18t-17.5 47q0 34 23.5 56.5t56.5 22.5q29 0 46 -18.5t17 -47.5zM268 614
q0 -33 -23 -55.5t-56 -22.5q-29 0 -46.5 18t-17.5 47q0 34 23.5 56.5t56.5 22.5q29 0 46 -18.5t17 -47.5z" />
    <glyph glyph-name="divide" unicode="&#xf7;" horiz-adv-x="705" 
d="M63 237l23 104h553l-23 -104h-553zM382 108q0 -33 -23 -55.5t-56 -22.5q-29 0 -46.5 18t-17.5 47q0 34 23.5 56.5t56.5 22.5q29 0 46 -18.5t17 -47.5zM464 486q0 -33 -23 -55.5t-56 -22.5q-29 0 -46.5 18t-17.5 47q0 34 23.5 56.5t56.5 22.5q29 0 46 -18.5t17 -47.5z" />
    <glyph glyph-name="oslash" unicode="&#xf8;" horiz-adv-x="513" 
d="M427 426q26 -28 39 -64.5t13 -75.5q0 -49 -18.5 -102t-54.5 -96.5t-89.5 -71.5t-123.5 -28q-56 0 -96 20l-42 -54l-66 16l59 75q-26 28 -38 65t-12 76q0 56 20.5 109.5t57.5 95t89.5 66.5t116.5 25q29 0 52 -5.5t43 -14.5l55 71l65 -19zM298 364q-11 14 -29 14
q-22 0 -40 -16.5t-32 -41.5t-23 -55t-13 -58q-1 -5 -1.5 -10.5t-0.5 -10.5zM174 105q11 -14 31 -14q23 0 41.5 16.5t32 42t22.5 55.5t12 58q1 5 1 10v10z" />
    <glyph glyph-name="ugrave" unicode="&#xf9;" horiz-adv-x="556" 
d="M440 101q-3 -11 -3 -19q0 -31 50 -38l7 -1l-225 -58l12 58q-28 -26 -69 -41.5t-84 -15.5q-52 0 -80 21t-28 70q0 14 2 27.5t5 27.5l38 189q4 20 6 34.5t2 25.5q0 26 -11 34t-33 12l-6 1l237 58l-71 -327q-3 -15 -3 -27q0 -41 35 -41q20 0 42.5 21t30.5 56l36 153
q10 41 10 64q0 24 -13.5 31t-33.5 11l-5 1l236 58zM197 666h194l7 -165z" />
    <glyph glyph-name="uacute" unicode="&#xfa;" horiz-adv-x="556" 
d="M440 101q-3 -11 -3 -19q0 -31 50 -38l7 -1l-225 -58l12 58q-28 -26 -69 -41.5t-84 -15.5q-52 0 -80 21t-28 70q0 14 2 27.5t5 27.5l38 189q4 20 6 34.5t2 25.5q0 26 -11 34t-33 12l-6 1l237 58l-71 -327q-3 -15 -3 -27q0 -41 35 -41q20 0 42.5 21t30.5 56l36 153
q10 41 10 64q0 24 -13.5 31t-33.5 11l-5 1l236 58zM255 501l73 165h194z" />
    <glyph glyph-name="ucircumflex" unicode="&#xfb;" horiz-adv-x="556" 
d="M440 101q-3 -11 -3 -19q0 -31 50 -38l7 -1l-225 -58l12 58q-28 -26 -69 -41.5t-84 -15.5q-52 0 -80 21t-28 70q0 14 2 27.5t5 27.5l38 189q4 20 6 34.5t2 25.5q0 26 -11 34t-33 12l-6 1l237 58l-71 -327q-3 -15 -3 -27q0 -41 35 -41q20 0 42.5 21t30.5 56l36 153
q10 41 10 64q0 24 -13.5 31t-33.5 11l-5 1l236 58zM359 703l109 -202l-137 69l-164 -69z" />
    <glyph glyph-name="udieresis" unicode="&#xfc;" horiz-adv-x="556" 
d="M440 101q-3 -11 -3 -19q0 -31 50 -38l7 -1l-225 -58l12 58q-28 -26 -69 -41.5t-84 -15.5q-52 0 -80 21t-28 70q0 14 2 27.5t5 27.5l38 189q4 20 6 34.5t2 25.5q0 26 -11 34t-33 12l-6 1l237 58l-71 -327q-3 -15 -3 -27q0 -41 35 -41q20 0 42.5 21t30.5 56l36 153
q10 41 10 64q0 24 -13.5 31t-33.5 11l-5 1l236 58zM504 614q0 -33 -23 -55.5t-56 -22.5q-29 0 -46.5 18t-17.5 47q0 34 23.5 56.5t56.5 22.5q29 0 46 -18.5t17 -47.5zM294 614q0 -33 -23 -55.5t-56 -22.5q-29 0 -46.5 18t-17.5 47q0 34 23.5 56.5t56.5 22.5q29 0 46 -18.5
t17 -47.5z" />
    <glyph glyph-name="yacute" unicode="&#xfd;" horiz-adv-x="509" 
d="M524 464q-15 -50 -36.5 -104t-52.5 -113q-18 -34 -42 -74t-52.5 -81.5t-61 -83t-66.5 -78.5q-48 -51 -101.5 -83.5t-101.5 -32.5t-70 22t-22 55q0 28 11 56q11 -10 27.5 -16t36.5 -6q38 0 77.5 19t73.5 56l-83 376q-5 23 -20 36.5t-46 15.5l-12 1l221 55l67 -331
q16 25 38 64.5t36 78.5q10 27 15.5 51t5.5 44q0 26 -12.5 47t-39.5 26h210zM255 501l73 165h194z" />
    <glyph glyph-name="thorn" unicode="&#xfe;" horiz-adv-x="544" 
d="M506 316q0 -54 -18 -111.5t-54 -105.5t-90 -79t-126 -31q-20 0 -34 4.5t-24 12.5q-3 -12 -9.5 -43t-14.5 -63q-9 -38 -19 -81h-159l165 764q2 8 2 12q0 19 -15 29t-35 13l-6 1l238 58l-58 -258q26 20 61 34t70 14q31 0 55 -13.5t39.5 -36.5t23.5 -54t8 -66zM336 298
q0 32 -9.5 50t-29.5 18q-14 0 -34.5 -16t-37.5 -42q-6 -9 -12.5 -32t-12 -50.5t-9.5 -53t-4 -38.5q0 -44 38 -44q26 0 46.5 22t35 54t22 68t7.5 64z" />
    <glyph glyph-name="ydieresis" unicode="&#xff;" horiz-adv-x="509" 
d="M524 464q-15 -50 -36.5 -104t-52.5 -113q-18 -34 -42 -74t-52.5 -81.5t-61 -83t-66.5 -78.5q-48 -51 -101.5 -83.5t-101.5 -32.5t-70 22t-22 55q0 28 11 56q11 -10 27.5 -16t36.5 -6q38 0 77.5 19t73.5 56l-83 376q-5 23 -20 36.5t-46 15.5l-12 1l221 55l67 -331
q16 25 38 64.5t36 78.5q10 27 15.5 51t5.5 44q0 26 -12.5 47t-39.5 26h210zM471 614q0 -33 -23 -55.5t-56 -22.5q-29 0 -46.5 18t-17.5 47q0 34 23.5 56.5t56.5 22.5q29 0 46 -18.5t17 -47.5zM261 614q0 -33 -23 -55.5t-56 -22.5q-29 0 -46.5 18t-17.5 47q0 34 23.5 56.5
t56.5 22.5q29 0 46 -18.5t17 -47.5z" />
    <glyph glyph-name="OE" unicode="&#x152;" horiz-adv-x="936" 
d="M912 472q-3 47 -33 65t-78 18h-120l-34 -160h97q28 0 46 4.5t28.5 10.5t15 12t5.5 9l-38 -183q-1 12 -8.5 19.5t-19 12t-25.5 6.5t-26 2h-97l-36 -177h126q36 0 61.5 5.5t44.5 17.5t32.5 30t25.5 43l-45 -207h-458q-48 -15 -102 -15q-61 0 -108.5 19.5t-80.5 55t-50.5 85
t-17.5 109.5q0 83 30 160.5t83.5 137t125.5 95t156 35.5q28 0 52 -4t46 -12h441zM486 434q0 60 -21 98.5t-68 38.5q-41 0 -75.5 -33t-59.5 -83.5t-39.5 -110t-14.5 -113.5q0 -60 20.5 -97.5t65.5 -37.5q42 0 77 32.5t60.5 82.5t40 109.5t14.5 113.5z" />
    <glyph glyph-name="oe" unicode="&#x153;" horiz-adv-x="758" 
d="M755 365q0 -29 -15 -61.5t-49.5 -61t-91 -48.5t-140.5 -24q2 -13 6 -23q12 -29 35 -42.5t54 -13.5q38 0 80 16t75 41q-12 -40 -36 -70.5t-54 -51.5t-65 -31.5t-70 -10.5q-85 0 -133 51q-32 -22 -71 -34.5t-87 -12.5q-51 0 -88 17t-61 44.5t-35 63t-11 73.5
q0 56 20.5 109.5t57.5 95t89.5 66.5t116.5 25q51 0 87.5 -16.5t60.5 -43.5q38 29 84.5 45.5t100.5 16.5q24 0 49 -6.5t45.5 -20.5t33 -36.5t12.5 -55.5zM617 350q0 19 -10.5 29.5t-27.5 10.5q-15 0 -33.5 -9.5t-36.5 -27.5t-32 -43.5t-20 -57.5q34 1 63.5 8.5t51 21t33.5 31
t12 37.5zM316 297q0 13 -2.5 27.5t-7.5 26.5t-14.5 19.5t-22.5 7.5q-26 0 -46.5 -23t-35 -56t-22.5 -68.5t-8 -60.5q0 -14 2.5 -28t8 -25t14.5 -18.5t23 -7.5q27 0 47.5 23t34.5 55.5t21.5 67.5t7.5 60z" />
    <glyph glyph-name="Scaron" unicode="&#x160;" horiz-adv-x="531" 
d="M484 453q-30 54 -73.5 83t-85.5 29q-32 0 -52 -15t-20 -46q0 -24 17.5 -44t43 -39t56 -39.5t56 -46.5t43 -58t17.5 -75q0 -46 -19 -85.5t-54.5 -69t-86.5 -46.5t-115 -17q-36 0 -70.5 6t-64 15t-52 20t-35.5 21l46 213q13 -39 33.5 -68t45.5 -48t53 -28.5t57 -9.5
q35 0 56 18.5t21 47.5q0 23 -16.5 42t-41.5 36.5t-54 37t-54 44.5t-41.5 58t-16.5 78t18.5 84t52 68t81 46t105.5 17q35 0 65 -5.5t53.5 -13.5t40.5 -17t28 -15zM337 696l-129 205l158 -69l183 69z" />
    <glyph glyph-name="scaron" unicode="&#x161;" horiz-adv-x="420" 
d="M400 393q0 -17 -8 -30.5t-20 -24.5t-27 -19.5t-28 -14.5l2 12q0 32 -22.5 49.5t-52.5 17.5q-8 0 -18 -1.5t-19 -6t-15 -11.5t-6 -17q0 -14 13 -26t32.5 -25t42.5 -28.5t42.5 -34t32.5 -42.5t13 -54q0 -42 -21 -71t-53 -47t-70.5 -26t-73.5 -8q-43 0 -86 8t-81 31l44 178
q4 -23 13.5 -44t24.5 -36.5t35 -25t45 -9.5q8 0 18.5 1.5t19.5 5.5t15.5 11t6.5 17q0 13 -12 25t-29.5 24t-38.5 25.5t-38.5 31.5t-29.5 41t-12 53q0 42 19 73t49.5 51t68.5 29.5t75 9.5q22 0 48 -4t48.5 -14.5t37.5 -28.5t15 -45zM239 502l-109 201l137 -69l164 69z" />
    <glyph glyph-name="Ydieresis" unicode="&#x178;" horiz-adv-x="617" 
d="M498 644q0 12 -7 16t-11 6h225q-3 -1 -10.5 -4t-18 -10.5t-23.5 -21.5t-29 -36l-244 -338l-40 -180q-3 -15 -3 -26q0 -15 4 -24.5t10 -15t12 -8t9 -2.5h-271q4 0 12.5 3t18 11t19 21.5t14.5 36.5l40 184l-86 338q-6 22 -14.5 35.5t-17.5 21.5t-16.5 11t-10.5 4h252
q-4 -2 -12 -9t-8 -31q0 -7 1.5 -14.5l3.5 -17.5l46 -186l131 183q14 19 19 32t5 21zM584 788q0 -33 -23 -55.5t-56 -22.5q-29 0 -46.5 18t-17.5 47q0 34 23.5 56.5t56.5 22.5q29 0 46 -18.5t17 -47.5zM374 788q0 -33 -23 -55.5t-56 -22.5q-29 0 -46.5 18t-17.5 47
q0 34 23.5 56.5t56.5 22.5q29 0 46 -18.5t17 -47.5z" />
    <glyph glyph-name="Zcaron" unicode="&#x17d;" horiz-adv-x="599" 
d="M240 111h141q33 0 58.5 5t45 15.5t35 25.5t28.5 35l-48 -192h-545q4 6 23 33t48 67t65 89t72 100q85 119 192 266h-151q-39 0 -64 -8.5t-40 -19.5t-22 -21.5t-9 -14.5l44 175h529zM372 703l-109 201l137 -69l164 69z" />
    <glyph glyph-name="zcaron" unicode="&#x17e;" horiz-adv-x="459" 
d="M195 88h78q34 0 55.5 4.5t35.5 12.5t23 20.5t18 27.5l-38 -153h-407l260 384h-110q-29 0 -52.5 -13t-34.5 -38l33 139h399zM257 502l-109 201l137 -69l164 69z" />
    <glyph glyph-name="florin" unicode="&#x192;" 
d="M524 540q-17 11 -38.5 15.5t-34.5 4.5q-26 0 -41 -16t-23.5 -39.5t-12.5 -49.5t-8 -46l104 1l-20 -101h-103l-40 -194q-28 -134 -92.5 -205.5t-177.5 -71.5q-30 0 -53.5 6t-50.5 17l47 126q10 -8 21 -14q10 -5 22 -9t24 -4q14 0 25 4t21 17t18.5 38t17.5 67l46 223h-95
l20 100h94q30 145 97 209.5t169 64.5q31 0 62 -6t54 -17z" />
    <glyph glyph-name="circumflex" unicode="&#x2c6;" horiz-adv-x="506" 
d="M312 703l109 -202l-137 69l-164 -69z" />
    <glyph glyph-name="tilde" unicode="&#x2dc;" horiz-adv-x="506" 
d="M459 628q-4 -18 -14 -34t-25 -28.5t-34 -20t-40 -7.5q-22 0 -41 8.5t-36.5 18.5t-34.5 18.5t-35 8.5q-22 0 -37 -14.5t-23 -52.5q-25 31 -15 72q7 34 36 59t71 25q22 0 43.5 -8t40.5 -18t36.5 -18t32.5 -8q27 0 40 17.5t21 50.5q11 -14 14.5 -32t-0.5 -37z" />
    <glyph glyph-name="endash" unicode="&#x2013;" horiz-adv-x="656" 
d="M608 186h-600l20 98h600z" />
    <glyph glyph-name="emdash" unicode="&#x2014;" horiz-adv-x="1056" 
d="M1008 186h-1000l20 98h1000z" />
    <glyph glyph-name="quoteleft" unicode="&#x2018;" horiz-adv-x="261" 
d="M326 681q-27 -9 -53.5 -26.5t-47 -40.5t-34 -50t-15.5 -56v-8q4 0 12 -2q25 -5 39 -24.5t14 -45.5q0 -21 -8 -39t-21.5 -31t-31.5 -20.5t-39 -7.5q-18 0 -36 6.5t-31.5 21t-22 36.5t-8.5 52q0 36 17 77.5t49.5 76.5t80.5 58.5t110 23.5h13t13 -1z" />
    <glyph glyph-name="quoteright" unicode="&#x2019;" horiz-adv-x="261" 
d="M298 565q0 -36 -17 -77.5t-49.5 -77t-80.5 -59t-110 -23.5q-7 0 -13 0.5t-13 1.5q28 9 54 26t47 40t34 50.5t15 56.5q0 2 0.5 4t0.5 4q-8 0 -12 1q-26 5 -39.5 25t-13.5 46q0 21 8 39t21.5 31t31.5 20.5t39 7.5q18 0 35.5 -6.5t31 -21t22 -36.5t8.5 -52z" />
    <glyph glyph-name="quotesinglbase" unicode="&#x201a;" horiz-adv-x="261" 
d="M176 59q0 -36 -17 -77.5t-49.5 -77t-80.5 -59t-110 -23.5q-7 0 -13 0.5t-13 1.5q27 9 53.5 26t47 39.5t34 49.5t15.5 56q0 2 0.5 5t0.5 5q-6 0 -14 2q-25 5 -38 24.5t-13 45.5q0 21 8 39t21.5 31t31.5 20.5t39 7.5q18 0 35.5 -6.5t31 -21t22 -36.5t8.5 -52z" />
    <glyph glyph-name="quotedblleft" unicode="&#x201c;" horiz-adv-x="563" 
d="M353 680q-27 -9 -53.5 -26t-47.5 -40t-34.5 -50t-15.5 -56v-9q8 0 11 -1q26 -4 40 -24t14 -46q0 -21 -8 -39t-21.5 -31.5t-31.5 -21t-39 -7.5q-18 0 -35.5 6.5t-31 21t-22 36.5t-8.5 52q0 36 17 77.5t49.5 76.5t80 58.5t109.5 23.5h13.5t13.5 -1zM612 680
q-27 -9 -53.5 -26t-47.5 -40t-34.5 -50t-15.5 -56v-9q4 0 12 -2q25 -5 39 -24.5t14 -45.5q0 -21 -8 -39t-21.5 -31t-31.5 -20.5t-39 -7.5q-18 0 -35.5 6.5t-31 21t-22 36.5t-8.5 52q0 36 17 77.5t49.5 76.5t80 58.5t109.5 23.5h13.5t13.5 -1z" />
    <glyph glyph-name="quotedblright" unicode="&#x201d;" horiz-adv-x="563" 
d="M567 565q0 -36 -17 -77.5t-50 -77t-81 -59t-110 -23.5q-7 0 -12.5 0.5t-12.5 1.5q28 9 54 26t46.5 40t33.5 50.5t15 56.5q0 2 0.5 4t0.5 4q-8 0 -12 1q-26 5 -39.5 25t-13.5 46q0 21 8 39t21.5 31t31.5 20.5t39 7.5q18 0 36 -6.5t31.5 -21t22 -36.5t8.5 -52zM308 565
q0 -36 -17 -77.5t-49.5 -77t-80.5 -59t-110 -23.5q-7 0 -13 0.5t-13 1.5q28 9 54 26t47 40t34 50.5t15 56.5v8q-8 0 -12 1q-25 5 -39 25t-14 46q0 21 8 39t21.5 31t31.5 20.5t39 7.5q18 0 36 -6.5t31.5 -21t22 -36.5t8.5 -52z" />
    <glyph glyph-name="quotedblbase" unicode="&#x201e;" horiz-adv-x="563" 
d="M460 59q0 -36 -17 -77.5t-50 -77t-81 -59t-110 -23.5q-7 0 -12.5 0.5t-12.5 1.5q27 9 53 26t47 39.5t34 49.5t15 56q0 2 0.5 5t0.5 5h-6.5t-6.5 1q-25 5 -38.5 25t-13.5 46q0 21 8 39t21.5 31t31.5 20.5t39 7.5q18 0 36 -6.5t31.5 -21t22 -36.5t8.5 -52zM201 59
q0 -36 -17 -77.5t-49.5 -77t-80.5 -59t-110 -23.5q-7 0 -13 0.5t-13 1.5q27 9 53 26t47 39.5t34 49.5t15 56q0 2 0.5 5t0.5 5q-8 0 -12 1q-26 5 -39.5 25t-13.5 46q0 21 8 39t21.5 31t31.5 20.5t39 7.5q18 0 36 -6.5t31.5 -21t22 -36.5t8.5 -52z" />
    <glyph glyph-name="dagger" unicode="&#x2020;" horiz-adv-x="603" 
d="M512 474q22 0 37 3t24 7.5t13 8t5 5.5l-33 -153q-1 7 -9 13q-7 5 -20.5 9.5t-39.5 4.5h-108l-76 -361q-10 -46 -27 -83t-34 -63q-20 -31 -42 -56q-5 14 -15 49t-10 83q0 18 1 35.5t5 34.5l76 361h-108q-24 0 -39.5 -3.5t-24.5 -8t-13 -8.5t-5 -6l33 154q1 -8 9 -13
q7 -5 20 -9t38 -4h111l15 75q9 43 9 67q0 29 -8 38.5t-12 11.5h193q-3 -1 -10 -5.5t-15.5 -17t-18 -35t-16.5 -59.5l-15 -75h110z" />
    <glyph glyph-name="daggerdbl" unicode="&#x2021;" horiz-adv-x="603" 
d="M512 474q22 0 37 3t24 7.5t13 8t5 5.5l-33 -153q-1 7 -9 13q-7 5 -20.5 9.5t-39.5 4.5h-108l-55 -259h108q46 0 62.5 10.5t18.5 14.5l-32 -153q-1 7 -9 13q-7 5 -20.5 9t-37.5 4h-111l-16 -75q-5 -22 -6.5 -38.5t-1.5 -28.5q0 -29 7 -38.5t12 -11.5h-192q3 1 9.5 5.5
t15 17t17.5 35t17 59.5l16 75h-110q-23 0 -37.5 -3t-23.5 -7.5t-13 -8.5l-5 -5l32 153q1 -8 9 -14q7 -5 21 -9t40 -4h108l55 259h-108q-24 0 -39.5 -3.5t-24.5 -8t-13 -8.5t-5 -6l33 154q1 -8 9 -13q7 -5 20 -9t38 -4h111l15 75q9 43 9 67q0 29 -8 38.5t-12 11.5h193
q-3 -1 -10 -5.5t-15.5 -17t-18 -35t-16.5 -59.5l-15 -75h110z" />
    <glyph glyph-name="bullet" unicode="&#x2022;" horiz-adv-x="579" 
d="M470 283q0 -40 -14.5 -73t-40 -56.5t-60 -36.5t-75.5 -13t-76 13.5t-60.5 37.5t-40 57t-14.5 72t14.5 72t40 57t60.5 37.5t76 13.5t76 -13.5t60.5 -37.5t39.5 -57.5t14 -72.5z" />
    <glyph glyph-name="ellipsis" unicode="&#x2026;" horiz-adv-x="1196" 
d="M1082 88q0 -45 -30.5 -74t-74.5 -29q-38 0 -61 24t-23 62q0 45 30 74.5t75 29.5q39 0 61.5 -24.5t22.5 -62.5zM682 88q0 -45 -30.5 -74t-74.5 -29q-38 0 -61 24t-23 62q0 45 30 74.5t75 29.5q39 0 61.5 -24.5t22.5 -62.5zM282 88q0 -45 -30.5 -74t-74.5 -29q-38 0 -61 24
t-23 62q0 45 30 74.5t75 29.5q39 0 61.5 -24.5t22.5 -62.5z" />
    <glyph glyph-name="perthousand" unicode="&#x2030;" horiz-adv-x="1199" 
d="M236 0h-124l457 666h122zM782 148q0 -29 -10.5 -57.5t-32 -51t-53 -36.5t-73.5 -14t-74 14t-53 36.5t-31.5 51t-10.5 57.5q0 30 10.5 58.5t31.5 51t53 36t74 13.5t73.5 -13.5t53 -36t32 -51t10.5 -58.5zM670 147q0 44 -16.5 60t-40.5 16t-40.5 -16t-16.5 -60
q0 -45 16.5 -60t40.5 -15t40.5 15.5t16.5 59.5zM364 522q0 -29 -10.5 -57.5t-32 -51t-53 -36.5t-73.5 -14t-74 14t-53 36.5t-31.5 51t-10.5 57.5q0 30 10.5 58.5t31.5 51t53 36t74 13.5t73.5 -13.5t53 -36t32 -51t10.5 -58.5zM252 521q0 44 -16.5 60t-40.5 16t-40.5 -16
t-16.5 -60q0 -45 16.5 -60t40.5 -15t40.5 15.5t16.5 59.5zM1165 148q0 -29 -10.5 -57.5t-32 -51t-53 -36.5t-73.5 -14t-74 14t-53 36.5t-31.5 51t-10.5 57.5q0 30 10.5 58.5t31.5 51t53 36t74 13.5t73.5 -13.5t53 -36t32 -51t10.5 -58.5zM1053 147q0 44 -16.5 60t-40.5 16
t-40.5 -16t-16.5 -60q0 -45 16.5 -60t40.5 -15t40.5 15.5t16.5 59.5z" />
    <glyph glyph-name="guilsinglleft" unicode="&#x2039;" horiz-adv-x="261" 
d="M118 252l95 -181h-120l-102 181l156 182h133z" />
    <glyph glyph-name="guilsinglright" unicode="&#x203a;" horiz-adv-x="261" 
d="M84 71h-134l170 181l-85 182h119l92 -182z" />
    <glyph glyph-name="Euro" unicode="&#x20ac;" 
d="M497 512q-14 30 -41 42t-54 12q-49 0 -87.5 -34t-64.5 -85h217l-40 -84h-209q-5 -17 -8 -34.5t-5 -34.5h188l-39 -84h-149q6 -49 31 -78.5t76 -29.5q38 0 80.5 19.5t77.5 67.5l-30 -141q-32 -32 -83 -47.5t-108 -15.5q-48 0 -87 16.5t-67 46.5t-45 71.5t-22 90.5h-76
l27 84h49q3 34 12 69h-61l27 84h64q23 50 58.5 93t81.5 74.5t101.5 49t120.5 17.5q40 0 73 -7t59 -22z" />
    <glyph glyph-name="trademark" unicode="&#x2122;" horiz-adv-x="626" 
d="M539 666h124q-1 -1 -13 -10t-18 -37l-34 -169q-3 -14 -3 -22q0 -17 5 -21.5t8 -5.5h-111q4 1 13.5 10.5t15.5 39.5l30 149l-121 -212l-36 210l-29 -144q-3 -15 -3 -25q0 -16 4.5 -21.5t7.5 -6.5h-98q5 1 15.5 11.5t17.5 42.5l34 166q1 5 1.5 8.5t0.5 6.5q0 16 -7 22t-9 8
h125l19 -108zM289 569q-2 13 -6 24q-3 9 -9 16.5t-15 7.5h-43l-34 -167q-3 -15 -3 -24q0 -14 4 -19.5t7 -5.5h-109q4 1 13 10.5t15 38.5l34 167h-43q-9 0 -17.5 -5.5t-14.5 -12.5t-10.5 -14.5t-6.5 -11.5l22 93h233zM50 570v1v-1z" />
    </font>
</defs>
</svg>
