<svg width="47" height="50" viewBox="0 0 47 50" fill="none" xmlns="http://www.w3.org/2000/svg">
<g clip-path="url(#clip0)">
<path d="M2.83009 15.2352C1.02622 18.4958 0 22.2299 0 26.2005C0 30.1711 1.02622 33.9086 2.83009 37.1692V15.2352Z" fill="#C28F2C"/>
<path d="M23.5 3.15973C21.5932 3.15973 19.7431 3.3894 17.9678 3.80699V7.4331C19.7254 6.93896 21.579 6.66753 23.5 6.66753C34.5008 6.66753 43.4206 15.3848 43.4206 26.1414C43.4206 30.9855 41.6061 35.4155 38.6127 38.8224L38.0446 40.8094L36.7875 45.208C42.9555 41.0564 47.0036 34.093 47.0036 26.2039C47 13.4743 36.4787 3.15973 23.5 3.15973Z" fill="#C28F2C"/>
<path d="M17.9678 38.1577H35.9921H36.3863C39.4366 35.0327 41.315 30.801 41.315 26.1414C41.315 16.5228 33.3396 8.72766 23.5 8.72766C21.5683 8.72766 19.7112 9.0339 17.9678 9.58721V38.1577Z" fill="#C28F2C"/>
<path d="M15.8371 0H2.42879L4.9606 5.15381V44.8497L2.42879 50H33.2011L35.9921 40.2456H15.8371V0Z" fill="#C28F2C"/>
</g>
<defs>
<clipPath id="clip0">
<rect width="47" height="50" fill="white"/>
</clipPath>
</defs>
</svg>
